<svg id="Group_10210" data-name="Group 10210" xmlns="http://www.w3.org/2000/svg" width="160.004" height="46.532">
    <defs>
        <style>
            .cls-1{fill:#fff}
        </style>
    </defs>
    <g id="Group_8728" data-name="Group 8728">
        <path id="Path_6939" data-name="Path 6939" d="M62.319 99.769c-.366 0-.722 0-1.085-.013a15.224 15.224 0 0 1-2.243-.2A7.053 7.053 0 0 1 57 98.9a6.478 6.478 0 0 1-1.676-1.22 6.379 6.379 0 0 1-1.224-1.673 6.875 6.875 0 0 1-.652-1.989 14.892 14.892 0 0 1-.2-2.25c-.007-.253-.018-1.1-.018-1.1V62.323s.01-.83.018-1.073a14.826 14.826 0 0 1 .2-2.247 6.914 6.914 0 0 1 .652-1.994 6.447 6.447 0 0 1 1.218-1.678A6.68 6.68 0 0 1 57 54.1a7 7 0 0 1 1.984-.653 15.136 15.136 0 0 1 2.251-.2l1.083-.015h141.825l1.1.015a14.854 14.854 0 0 1 2.23.2 7.123 7.123 0 0 1 2.005.657 6.708 6.708 0 0 1 2.9 2.9 6.917 6.917 0 0 1 .642 1.979 15.567 15.567 0 0 1 .208 2.265v1.068c.009.45.009.879.009 1.31v25.75c0 .436 0 .861-.009 1.29v1.116a15.278 15.278 0 0 1-.205 2.224 6.886 6.886 0 0 1-.648 2 6.565 6.565 0 0 1-1.219 1.663 6.492 6.492 0 0 1-1.679 1.227 7.039 7.039 0 0 1-2 .66 15.051 15.051 0 0 1-2.243.2c-.351.008-.72.013-1.077.013h-1.3z" transform="translate(-53.232 -53.239)"/>
    </g>
    <g id="_Group_" data-name="&lt;Group&gt;" transform="translate(12.004 8.164)">
        <g id="_Group_2" data-name="&lt;Group&gt;">
            <path id="_Path_" data-name="&lt;Path&gt;" class="cls-1" d="M30.5 22.75a6.864 6.864 0 0 1 3.269-5.759A7.026 7.026 0 0 0 28.229 14c-2.329-.244-4.587 1.394-5.774 1.394-1.21 0-3.037-1.369-5.005-1.329a7.373 7.373 0 0 0-6.2 3.784c-2.683 4.644-.682 11.47 1.888 15.224 1.286 1.838 2.788 3.892 4.754 3.819 1.924-.08 2.642-1.227 4.965-1.227 2.3 0 2.975 1.227 4.981 1.181C29.9 36.81 31.2 35 32.439 33.141a15.2 15.2 0 0 0 2.106-4.289A6.633 6.633 0 0 1 30.5 22.75z" transform="translate(-9.972 -6.687)"/>
            <path id="_Path_2" data-name="&lt;Path&gt;" class="cls-1" d="M23.294 13.562A6.758 6.758 0 0 0 24.84 8.72a6.876 6.876 0 0 0-4.449 2.3 6.431 6.431 0 0 0-1.591 4.665 5.686 5.686 0 0 0 4.494-2.123z" transform="translate(-6.558 -8.72)"/>
        </g>
    </g>
    <g id="_Group_3" data-name="&lt;Group&gt;" transform="translate(49.844 27.62)">
        <g id="Group_8741" data-name="Group 8741">
            <path id="Path_6983" data-name="Path 6983" class="cls-1" d="M35.58 24.63a.7.7 0 1 1 .2.509.7.7 0 0 1-.2-.509zm.115 9.009v-7.584h1.178v7.585z" transform="translate(-35.58 -23.94)"/>
            <path id="Path_6984" data-name="Path 6984" class="cls-1" d="M38.113 27.092H39.2V28h.084a1.714 1.714 0 0 1 1.708-1.019 1.862 1.862 0 0 1 1.981 2.129v3.705h-1.13v-3.421c0-.92-.4-1.377-1.235-1.377a1.313 1.313 0 0 0-1.367 1.45v3.349h-1.13z" transform="translate(-34.893 -23.117)"/>
            <path id="Path_6985" data-name="Path 6985" class="cls-1" d="M43.089 30.4c0-1.809.93-2.954 2.376-2.954a1.887 1.887 0 0 1 1.755 1h.08V25.31h1.13v7.958h-1.078v-.9h-.089a1.987 1.987 0 0 1-1.8 1c-1.454-.006-2.374-1.152-2.374-2.968zm1.167 0c0 1.214.572 1.945 1.529 1.945s1.541-.741 1.541-1.94-.595-1.944-1.541-1.944-1.529.735-1.529 1.939z" transform="translate(-33.544 -23.569)"/>
            <path id="Path_6986" data-name="Path 6986" class="cls-1" d="M48.636 25.9a.732.732 0 1 1 .731.689.7.7 0 0 1-.731-.689zm.168 1.693h1.126v5.724H48.8z" transform="translate(-32.04 -23.619)"/>
            <path id="Path_6987" data-name="Path 6987" class="cls-1" d="M51.087 27.089h1.087v.878h.084a1.552 1.552 0 0 1 1.545-.973 2.416 2.416 0 0 1 .5.047v1.115a3.139 3.139 0 0 0-.631-.068 1.341 1.341 0 0 0-1.461 1.346v3.38h-1.13z" transform="translate(-31.375 -23.113)"/>
            <path id="Path_6988" data-name="Path 6988" class="cls-1" d="M54.554 25.9a.732.732 0 1 1 .731.689.7.7 0 0 1-.731-.689zm.168 1.693h1.126v5.724h-1.126z" transform="translate(-30.436 -23.619)"/>
            <path id="Path_6989" data-name="Path 6989" class="cls-1" d="M57 27.092h1.087V28h.084a1.714 1.714 0 0 1 1.708-1.019 1.862 1.862 0 0 1 1.981 2.129v3.705h-1.13v-3.421c0-.92-.4-1.377-1.235-1.377a1.313 1.313 0 0 0-1.367 1.45v3.349H57z" transform="translate(-29.771 -23.117)"/>
        </g>
    </g>
    <g id="Group_8749" data-name="Group 8749" transform="translate(49.844 8.164)">
        <path id="Path_6990" data-name="Path 6990" class="cls-1" d="M42.129 17.274H37.5l-1.11 3.282h-1.96l4.383-12.14h2.036l4.383 12.14h-1.993zM37.98 15.76h3.668l-1.808-5.325h-.05z" transform="translate(-34.43 -8.213)"/>
        <path id="Path_6991" data-name="Path 6991" class="cls-1" d="M54.971 16.2c0 2.751-1.472 4.518-3.694 4.518a3 3 0 0 1-2.785-1.549h-.042v4.384h-1.816V11.778h1.759v1.472h.033a3.14 3.14 0 0 1 2.818-1.565c2.247 0 3.727 1.776 3.727 4.515zm-1.867 0c0-1.792-.926-2.97-2.339-2.97-1.388 0-2.322 1.2-2.322 2.97 0 1.783.934 2.978 2.322 2.978 1.413 0 2.339-1.17 2.339-2.978z" transform="translate(-34.703 -8.286)"/>
        <path id="Path_6992" data-name="Path 6992" class="cls-1" d="M64.936 16.2c0 2.751-1.472 4.518-3.693 4.518a3 3 0 0 1-2.785-1.549h-.042v4.384H56.6V11.778h1.759v1.472h.033a3.14 3.14 0 0 1 2.818-1.565c2.245 0 3.726 1.776 3.726 4.515zm-1.867 0c0-1.792-.926-2.97-2.339-2.97-1.388 0-2.322 1.2-2.322 2.97 0 1.783.934 2.978 2.322 2.978 1.413 0 2.339-1.17 2.339-2.978z" transform="translate(-34.925 -8.286)"/>
        <path id="Path_6993" data-name="Path 6993" class="cls-1" d="M71.67 17.169c.135 1.2 1.3 1.994 2.9 1.994 1.531 0 2.633-.791 2.633-1.876 0-.942-.664-1.507-2.238-1.893l-1.573-.379c-2.229-.538-3.264-1.581-3.264-3.273 0-2.095 1.825-3.533 4.418-3.533 2.565 0 4.324 1.439 4.383 3.533H77.1C76.987 10.53 75.985 9.8 74.522 9.8s-2.465.74-2.465 1.817c0 .858.64 1.363 2.2 1.75l1.338.328c2.491.589 3.526 1.59 3.526 3.365 0 2.271-1.809 3.694-4.687 3.694-2.692 0-4.51-1.389-4.628-3.585z" transform="translate(-35.221 -8.208)"/>
        <path id="Path_6994" data-name="Path 6994" class="cls-1" d="M83.277 9.637v2.095h1.683v1.439h-1.683v4.88c0 .758.337 1.111 1.077 1.111a5.679 5.679 0 0 0 .6-.042v1.43a4.989 4.989 0 0 1-1.009.084c-1.792 0-2.491-.673-2.491-2.39v-5.073h-1.289v-1.439h1.287V9.637z" transform="translate(-35.452 -8.24)"/>
        <path id="Path_6995" data-name="Path 6995" class="cls-1" d="M86.067 16.2c0-2.785 1.64-4.535 4.2-4.535s4.2 1.75 4.2 4.535-1.624 4.535-4.2 4.535-4.2-1.735-4.2-4.535zm6.546 0c0-1.91-.875-3.038-2.348-3.038S87.918 14.3 87.918 16.2c0 1.918.875 3.037 2.347 3.037s2.348-1.116 2.348-3.037z" transform="translate(-35.584 -8.286)"/>
        <path id="Path_6996" data-name="Path 6996" class="cls-1" d="M96.188 11.778h1.733v1.507h.042a2.111 2.111 0 0 1 2.129-1.6 2.8 2.8 0 0 1 .622.068v1.7a2.54 2.54 0 0 0-.816-.11A1.831 1.831 0 0 0 98 15.379v5.25h-1.812z" transform="translate(-35.811 -8.286)"/>
        <path id="Path_6997" data-name="Path 6997" class="cls-1" d="M109.2 18.029c-.244 1.607-1.809 2.71-3.811 2.71-2.575 0-4.173-1.725-4.173-4.493s1.607-4.577 4.1-4.577c2.449 0 3.989 1.682 3.989 4.366v.622h-6.252v.11a2.305 2.305 0 0 0 2.381 2.507 2 2 0 0 0 2.044-1.245zm-6.142-2.642h4.425a2.129 2.129 0 0 0-2.171-2.246 2.241 2.241 0 0 0-2.254 2.246z" transform="translate(-35.923 -8.286)"/>
        <path id="Path_6998" data-name="Path 6998" class="cls-1" d="m110.738 12.858.993-4.442h1.769l-1.2 4.442z" transform="translate(-36.136 -8.213)"/>
        <path id="Path_6999" data-name="Path 6999" class="cls-1" d="M113.479 16.131c0-2.734 1.506-4.519 3.7-4.519a2.986 2.986 0 0 1 2.776 1.565h.034V8.416h1.825v12.14h-1.767V19.05h-.033a3.019 3.019 0 0 1-2.818 1.6c-2.211-.002-3.717-1.785-3.717-4.519zm1.859 0c0 1.817.926 2.978 2.339 2.978 1.4 0 2.33-1.178 2.33-2.978 0-1.784-.934-2.97-2.33-2.97-1.413 0-2.339 1.17-2.339 2.97z" transform="translate(-36.197 -8.213)"/>
        <path id="Path_7000" data-name="Path 7000" class="cls-1" d="M123.645 18.113c0-1.548 1.186-2.482 3.289-2.608l2.423-.135v-.67c0-.984-.647-1.54-1.749-1.54a1.692 1.692 0 0 0-1.86 1.246h-1.7c.051-1.6 1.539-2.734 3.609-2.734 2.112 0 3.509 1.152 3.509 2.894v6.066h-1.741v-1.459h-.042a3.164 3.164 0 0 1-2.794 1.608 2.683 2.683 0 0 1-2.944-2.668zm5.712-.8v-.682l-2.179.135c-1.086.068-1.7.538-1.7 1.3 0 .774.64 1.279 1.615 1.279a2.121 2.121 0 0 0 2.263-2.028z" transform="translate(-36.424 -8.286)"/>
        <path id="Path_7001" data-name="Path 7001" class="cls-1" d="M133.232 11.777h1.733v1.507h.042a2.829 2.829 0 0 1 2.785-1.607c1.952 0 3.071 1.254 3.071 3.28v5.671h-1.825v-5.317c0-1.329-.615-2.069-1.893-2.069a2.057 2.057 0 0 0-2.1 2.288v5.1h-1.817z" transform="translate(-36.639 -8.286)"/>
    </g>
</svg>
