<svg xmlns="http://www.w3.org/2000/svg" width="159.115" height="46.273" viewBox="0 0 159.115 46.273">
    <defs>
        <style>
            .cls-2{fill:#fff}
        </style>
    </defs>
    <g id="Group_10272" data-name="Group 10272" transform="translate(-53.232 -53.239)">
        <g id="Group_8728" data-name="Group 8728" transform="translate(53.232 53.239)">
            <path id="Path_6939" data-name="Path 6939" d="M62.268 99.51c-.364 0-.718 0-1.079-.013a15.14 15.14 0 0 1-2.231-.194 7.016 7.016 0 0 1-1.977-.654 6.442 6.442 0 0 1-1.667-1.213 6.343 6.343 0 0 1-1.214-1.667 6.837 6.837 0 0 1-.648-1.978 14.81 14.81 0 0 1-.2-2.237c-.007-.252-.017-1.09-.017-1.09V62.272s.01-.825.017-1.067a14.744 14.744 0 0 1 .2-2.234 6.876 6.876 0 0 1 .648-1.983 6.411 6.411 0 0 1 1.212-1.668 6.643 6.643 0 0 1 1.674-1.22 6.958 6.958 0 0 1 1.973-.649 15.051 15.051 0 0 1 2.238-.2l1.077-.015H203.3l1.09.015a14.771 14.771 0 0 1 2.218.194 7.084 7.084 0 0 1 1.994.654 6.671 6.671 0 0 1 2.882 2.888 6.878 6.878 0 0 1 .639 1.968 15.486 15.486 0 0 1 .207 2.252v1.062c.009.448.009.874.009 1.3v25.6c0 .433 0 .857-.009 1.283v1.109a15.193 15.193 0 0 1-.2 2.212 6.848 6.848 0 0 1-.644 1.993 6.529 6.529 0 0 1-1.212 1.654 6.456 6.456 0 0 1-1.67 1.22 7 7 0 0 1-1.991.656 14.967 14.967 0 0 1-2.231.194c-.35.008-.716.013-1.071.013h-1.294z" transform="translate(-53.232 -53.239)"/>
        </g>
        <g id="Group_8730" data-name="Group 8730" transform="translate(62.752 61.061)">
            <path id="形状_1_拷贝_25" data-name="形状 1 拷贝 25" d="M15.314 0a15.314 15.314 0 0 1 15.314 15.314 15.314 15.314 0 0 1-15.314 15.314A15.314 15.314 0 0 1 0 15.314 15.314 15.314 0 0 1 15.314 0z" style="fill:#c8102e"/>
            <g id="Group_8729" data-name="Group 8729" transform="translate(3.418 5.12)">
                <path id="Path_6940" data-name="Path 6940" class="cls-2" d="M96.009 125.008h.812v4h-.812v-1.626h-1.835v1.626h-.812v-4h.812v1.616h1.835zm4.576 2.292c0 .651-.323 1-.91 1s-.915-.358-.915-1.027v-2.263h-.812v2.29a1.589 1.589 0 0 0 1.717 1.772 1.612 1.612 0 0 0 1.734-1.806v-2.259h-.812zm9.39.461-.909-2.754h-.666l-.909 2.754-.885-2.752h-.865l1.4 4h.673l.91-2.629.91 2.629h.679l1.392-4h-.842zm3.186-.473h1.478v-.729h-1.478v-.82h2.145v-.73h-2.947v4h3.024v-.73h-2.222zm3.191 1.718h.8v-4h-.8zm-13.352-.83-.364.834h-.83l1.764-4h.717l1.757 4h-.844l-.36-.834zm.3-.722h1.228l-.616-1.433z" transform="translate(-93.362 -114.812)"/>
                <path id="Path_6941" data-name="Path 6941" class="cls-2" d="M119.545 98.479a5.1 5.1 0 0 1-5.1-5.1h.72a4.378 4.378 0 0 0 8.756 0h.72a5.1 5.1 0 0 1-5.096 5.1z" transform="translate(-107.649 -93.381)"/>
            </g>
        </g>
        <g id="Group_8733" data-name="Group 8733" transform="translate(102.271 61.826)">
            <g id="Group_8731" data-name="Group 8731" transform="translate(.735)">
                <path id="Path_6942" data-name="Path 6942" class="cls-2" d="m210.816 91.339-1.4 4.238h-1.8L212.2 82.1h2.1l4.6 13.472h-1.859l-1.439-4.238zm4.417-1.359-1.319-3.88c-.3-.879-.5-1.679-.7-2.458h-.04c-.2.8-.42 1.619-.68 2.438l-1.319 3.9z" transform="translate(-207.618 -81.385)"/>
                <path id="Path_6943" data-name="Path 6943" class="cls-2" d="M246.573 96.58c0-1.239-.04-2.239-.08-3.158h1.579l.08 1.659h.04a3.8 3.8 0 0 1 3.438-1.881c2.338 0 4.1 1.979 4.1 4.917 0 3.478-2.119 5.2-4.4 5.2a3.393 3.393 0 0 1-2.978-1.519h-.04v5.257h-1.739zm1.739 2.579a3.955 3.955 0 0 0 .08.719 2.714 2.714 0 0 0 2.639 2.059c1.859 0 2.938-1.519 2.938-3.738 0-1.939-1.019-3.6-2.878-3.6a2.807 2.807 0 0 0-2.658 2.179 2.85 2.85 0 0 0-.12.719z" transform="translate(-233.96 -88.905)"/>
                <path id="Path_6944" data-name="Path 6944" class="cls-2" d="M279.122 96.58c0-1.239-.04-2.239-.08-3.158h1.579l.08 1.659h.04a3.8 3.8 0 0 1 3.438-1.879c2.339 0 4.1 1.979 4.1 4.917 0 3.478-2.119 5.2-4.4 5.2a3.391 3.391 0 0 1-2.979-1.519h-.04v5.257h-1.739zm1.739 2.579a3.957 3.957 0 0 0 .08.719 2.713 2.713 0 0 0 2.638 2.059c1.859 0 2.938-1.519 2.938-3.738 0-1.939-1.019-3.6-2.878-3.6a2.806 2.806 0 0 0-2.658 2.179 2.85 2.85 0 0 0-.12.719z" transform="translate(-256.015 -88.905)"/>
                <path id="Path_6945" data-name="Path 6945" class="cls-2" d="M321.713 94.683a12.549 12.549 0 0 1-4.137.74 6.327 6.327 0 0 1-6.916-6.8c.02-4.018 2.778-6.956 7.3-6.956a8.329 8.329 0 0 1 3.358.62l-.42 1.419a6.981 6.981 0 0 0-2.978-.58 5.038 5.038 0 0 0-5.417 5.417c0 3.418 2.059 5.437 5.2 5.437a5.67 5.67 0 0 0 2.319-.36v-4.014h-2.738v-1.4h4.437z" transform="translate(-277.439 -81.091)"/>
                <path id="Path_6946" data-name="Path 6946" class="cls-2" d="m355.65 103.1-.14-1.22h-.06a3.6 3.6 0 0 1-2.958 1.439 2.756 2.756 0 0 1-2.958-2.778c0-2.339 2.078-3.618 5.816-3.6v-.2a1.994 1.994 0 0 0-2.2-2.239 4.823 4.823 0 0 0-2.519.72l-.4-1.159a6 6 0 0 1 3.178-.859c2.958 0 3.678 2.019 3.678 3.958v3.618a13.619 13.619 0 0 0 .16 2.319zm-.26-4.937c-1.919-.04-4.1.3-4.1 2.179a1.557 1.557 0 0 0 1.659 1.679 2.407 2.407 0 0 0 2.338-1.619 1.836 1.836 0 0 0 .1-.56z" transform="translate(-303.781 -88.905)"/>
                <path id="Path_6947" data-name="Path 6947" class="cls-2" d="M378.487 79.873h1.759v14.191h-1.759z" transform="translate(-323.399 -79.873)"/>
                <path id="Path_6948" data-name="Path 6948" class="cls-2" d="M393.119 79.873h1.759v14.191h-1.759z" transform="translate(-333.314 -79.873)"/>
                <path id="Path_6949" data-name="Path 6949" class="cls-2" d="M405.648 98.579a3.1 3.1 0 0 0 3.318 3.358 6.359 6.359 0 0 0 2.678-.5l.3 1.259a7.829 7.829 0 0 1-3.218.6c-2.978 0-4.757-1.959-4.757-4.877s1.719-5.217 4.537-5.217c3.158 0 4 2.778 4 4.557a6.733 6.733 0 0 1-.06.82zm5.152-1.259c.02-1.119-.46-2.858-2.439-2.858-1.779 0-2.558 1.639-2.7 2.858z" transform="translate(-340.666 -88.905)"/>
                <path id="Path_6950" data-name="Path 6950" class="cls-2" d="M435.42 96.44c0-1.139-.02-2.119-.08-3.018h1.539l.06 1.9h.08A2.9 2.9 0 0 1 439.7 93.2a1.9 1.9 0 0 1 .5.06v1.659a2.64 2.64 0 0 0-.6-.06 2.468 2.468 0 0 0-2.359 2.259 4.954 4.954 0 0 0-.08.82v5.162h-1.741z" transform="translate(-361.923 -88.905)"/>
                <path id="Path_6951" data-name="Path 6951" class="cls-2" d="m457.532 93.885 2.119 5.716c.22.64.46 1.4.62 1.979h.04c.18-.58.379-1.319.619-2.019l1.919-5.676h1.859l-2.638 6.9c-1.26 3.318-2.119 5.017-3.318 6.056a4.763 4.763 0 0 1-2.159 1.139l-.44-1.479a4.657 4.657 0 0 0 1.539-.859 5.335 5.335 0 0 0 1.479-1.959 1.263 1.263 0 0 0 .14-.42 1.531 1.531 0 0 0-.12-.46l-3.578-8.914z" transform="translate(-375.66 -89.368)"/>
            </g>
            <g id="Group_8732" data-name="Group 8732" transform="translate(0 20.943)">
                <path id="Path_6953" data-name="Path 6953" class="cls-2" d="M213.148 149.567h.9v6.2h2.971v.753h-3.868z" transform="translate(-210.631 -148.04)"/>
                <path id="Path_6954" data-name="Path 6954" class="cls-2" d="M231.852 153.26h-2.7v2.507h3.012v.753h-3.91v-6.953h3.755v.753h-2.857v2.2h2.7z" transform="translate(-220.864 -148.04)"/>
                <path id="Path_6955" data-name="Path 6955" class="cls-2" d="M250.779 149.567h.9v3.353h.031c.186-.268.371-.516.546-.743l2.125-2.61h1.114l-2.517 2.951 2.713 4h-1.063l-2.29-3.415-.66.763v2.651h-.9z" transform="translate(-236.129 -148.04)"/>
                <path id="Path_6956" data-name="Path 6956" class="cls-2" d="M271.723 153.26h-2.7v2.507h3.012v.753h-3.91v-6.953h3.755v.753h-2.857v2.2h2.7z" transform="translate(-247.882 -148.04)"/>
                <path id="Path_6957" data-name="Path 6957" class="cls-2" d="M286.461 150.289a2.77 2.77 0 0 0-1.321-.33c-.949 0-1.31.567-1.31 1.042 0 .65.423.97 1.382 1.341 1.176.454 1.774 1.021 1.774 2.042a1.951 1.951 0 0 1-1.805 1.95l-.279.464a.809.809 0 0 1 .722.774c0 .6-.526.836-1.052.836a1.649 1.649 0 0 1-.743-.175l.155-.465a1.213 1.213 0 0 0 .567.134c.237 0 .433-.093.433-.31 0-.278-.32-.392-.8-.444l.413-.763h-.041a3.593 3.593 0 0 1-1.774-.444l.227-.753a3.181 3.181 0 0 0 1.609.454c.918 0 1.455-.485 1.455-1.186 0-.65-.371-1.021-1.31-1.382-1.135-.4-1.836-.991-1.836-1.97a2 2 0 0 1 2.249-1.888 3.163 3.163 0 0 1 1.537.34z" transform="translate(-257.812 -147.803)"/>
                <path id="Path_6958" data-name="Path 6958" class="cls-2" d="M299.643 149.567h3.745v.753h-2.848v2.311h2.631v.743h-2.631v3.147h-.9z" transform="translate(-269.24 -148.04)"/>
                <path id="Path_6959" data-name="Path 6959" class="cls-2" d="M318.826 153.26h-2.7v2.507h3.012v.753h-3.91v-6.953h3.755v.753h-2.857v2.2h2.7z" transform="translate(-279.799 -148.04)"/>
                <path id="Path_6960" data-name="Path 6960" class="cls-2" d="M330.97 149.551a12.9 12.9 0 0 1 1.909-.144 3.981 3.981 0 0 1 2.816.867 3.2 3.2 0 0 1 .98 2.5 3.677 3.677 0 0 1-1 2.7 4.283 4.283 0 0 1-3.074 1 14.477 14.477 0 0 1-1.63-.083zm.9 6.148a5.665 5.665 0 0 0 .908.052 2.673 2.673 0 0 0 2.961-2.95 2.48 2.48 0 0 0-2.816-2.682 5.094 5.094 0 0 0-1.052.093z" transform="translate(-290.467 -147.932)"/>
                <path id="Path_6961" data-name="Path 6961" class="cls-2" d="M352.121 145.348a.524.524 0 0 1 .516-.516.513.513 0 0 1 .495.516.506.506 0 1 1-1.011 0zm.949 1.011v6.953h-.9v-6.953z" transform="translate(-304.799 -144.832)"/>
                <path id="Path_6963" data-name="Path 6963" class="cls-2" d="M352.121 145.348a.524.524 0 0 1 .516-.516.513.513 0 0 1 .495.516.506.506 0 1 1-1.011 0zm.949 1.011v6.953h-.9v-6.953z" transform="translate(-352.121 -144.832)"/>
                <path id="Path_6962" data-name="Path 6962" class="cls-2" d="M359.929 156.52v-6.953h.98l2.228 3.518a19.692 19.692 0 0 1 1.248 2.259l.02-.01c-.082-.928-.1-1.774-.1-2.857v-2.909h.846v6.953h-.908l-2.208-3.528a22.025 22.025 0 0 1-1.3-2.321l-.031.01c.051.877.072 1.713.072 2.868v2.971z" transform="translate(-310.09 -148.04)"/>
            </g>
        </g>
    </g>
</svg>
