<svg xmlns="http://www.w3.org/2000/svg" version="1.1" viewBox="0 0 1080 1080" width="1080" height="1080">
<!--ITEM 1--><g><defs><clipPath id="clip-path-id-crop-item-1"><rect transform="scale(0.5331723027375201 0.5331723027375201)" x="0.0" y="26" width="590.0" height="594"/></clipPath><clipPath id="clip-path-id-viewbox-item-1"><rect x="0.0" y="0.0" width="331.1" height="331.1"/></clipPath></defs><g clip-path="url(#clip-path-id-crop-item-1)" transform="translate(279.0 194.0) rotate(0.0 310.5 310.5) scale(1.8755662941709452 1.8755662941709452)"><g clip-path="url(#clip-path-id-viewbox-item-1)" transform="translate(-0.0 -0.0)"><g>
	<g>
		<g>
			<g>
				<g>
					<circle cx="326.1" cy="5" r="5" style="fill:#383A48;"/>
				</g>
			</g>
		</g>
		<g>
			<g>
				<g>
					<circle cx="326.1" cy="29.7" r="5" style="fill:#383A48;"/>
				</g>
			</g>
		</g>
		<g>
			<g>
				<g>
					<circle cx="326.1" cy="54.4" r="5" style="fill:#383A48;"/>
				</g>
			</g>
		</g>
		<g>
			<g>
				<g>
					<circle cx="326.1" cy="79.1" r="5" style="fill:#383A48;"/>
				</g>
			</g>
		</g>
		<g>
			<g>
				<g>
					<circle cx="326.1" cy="103.8" r="5" style="fill:#383A48;"/>
				</g>
			</g>
		</g>
		<g>
			<g>
				<g>
					<circle cx="326.1" cy="128.5" r="5" style="fill:#383A48;"/>
				</g>
			</g>
		</g>
		<g>
			<g>
				<g>
					<circle cx="326.1" cy="153.2" r="5" style="fill:#383A48;"/>
				</g>
			</g>
		</g>
		<g>
			<g>
				<g>
					<circle cx="326.1" cy="177.9" r="5" style="fill:#383A48;"/>
				</g>
			</g>
		</g>
		<g>
			<g>
				<g>
					<circle cx="326.1" cy="202.6" r="5" style="fill:#383A48;"/>
				</g>
			</g>
		</g>
		<g>
			<g>
				<g>
					<circle cx="326.1" cy="227.3" r="5" style="fill:#383A48;"/>
				</g>
			</g>
		</g>
		<g>
			<g>
				<g>
					<circle cx="326.1" cy="252" r="5" style="fill:#383A48;"/>
				</g>
			</g>
		</g>
		<g>
			<g>
				<g>
					<circle cx="326.1" cy="276.7" r="5" style="fill:#383A48;"/>
				</g>
			</g>
		</g>
		<g>
			<g>
				<g>
					<circle cx="326.1" cy="301.4" r="5" style="fill:#383A48;"/>
				</g>
			</g>
		</g>
		<g>
			<g>
				<g>
					<circle cx="326.1" cy="326.1" r="5" style="fill:#383A48;"/>
				</g>
			</g>
		</g>
		<g>
			<g>
				<g>
					<circle cx="301.4" cy="5" r="5" style="fill:#383A48;"/>
				</g>
			</g>
		</g>
		<g>
			<g>
				<g>
					<circle cx="301.4" cy="29.7" r="5" style="fill:#383A48;"/>
				</g>
			</g>
		</g>
		<g>
			<g>
				<g>
					<circle cx="301.4" cy="54.4" r="5" style="fill:#383A48;"/>
				</g>
			</g>
		</g>
		<g>
			<g>
				<g>
					<circle cx="301.4" cy="79.1" r="5" style="fill:#383A48;"/>
				</g>
			</g>
		</g>
		<g>
			<g>
				<g>
					<circle cx="301.4" cy="103.8" r="5" style="fill:#383A48;"/>
				</g>
			</g>
		</g>
		<g>
			<g>
				<g>
					<circle cx="301.4" cy="128.5" r="5" style="fill:#383A48;"/>
				</g>
			</g>
		</g>
		<g>
			<g>
				<g>
					<circle cx="301.4" cy="153.2" r="5" style="fill:#383A48;"/>
				</g>
			</g>
		</g>
		<g>
			<g>
				<g>
					<circle cx="301.4" cy="177.9" r="5" style="fill:#383A48;"/>
				</g>
			</g>
		</g>
		<g>
			<g>
				<g>
					<circle cx="301.4" cy="202.6" r="5" style="fill:#383A48;"/>
				</g>
			</g>
		</g>
		<g>
			<g>
				<g>
					<circle cx="301.4" cy="227.3" r="5" style="fill:#383A48;"/>
				</g>
			</g>
		</g>
		<g>
			<g>
				<g>
					<circle cx="301.4" cy="252" r="5" style="fill:#383A48;"/>
				</g>
			</g>
		</g>
		<g>
			<g>
				<g>
					<circle cx="301.4" cy="276.7" r="5" style="fill:#383A48;"/>
				</g>
			</g>
		</g>
		<g>
			<g>
				<g>
					<circle cx="301.4" cy="301.4" r="5" style="fill:#383A48;"/>
				</g>
			</g>
		</g>
		<g>
			<g>
				<g>
					<circle cx="301.4" cy="326.1" r="5" style="fill:#383A48;"/>
				</g>
			</g>
		</g>
		<g>
			<g>
				<g>
					<circle cx="276.7" cy="5" r="5" style="fill:#383A48;"/>
				</g>
			</g>
		</g>
		<g>
			<g>
				<g>
					<circle cx="276.7" cy="29.7" r="5" style="fill:#383A48;"/>
				</g>
			</g>
		</g>
		<g>
			<g>
				<g>
					<circle cx="276.7" cy="54.4" r="5" style="fill:#383A48;"/>
				</g>
			</g>
		</g>
		<g>
			<g>
				<g>
					<circle cx="276.7" cy="79.1" r="5" style="fill:#383A48;"/>
				</g>
			</g>
		</g>
		<g>
			<g>
				<g>
					<circle cx="276.7" cy="103.8" r="5" style="fill:#383A48;"/>
				</g>
			</g>
		</g>
		<g>
			<g>
				<g>
					<circle cx="276.7" cy="128.5" r="5" style="fill:#383A48;"/>
				</g>
			</g>
		</g>
		<g>
			<g>
				<g>
					<circle cx="276.7" cy="153.2" r="5" style="fill:#383A48;"/>
				</g>
			</g>
		</g>
		<g>
			<g>
				<g>
					<circle cx="276.7" cy="177.9" r="5" style="fill:#383A48;"/>
				</g>
			</g>
		</g>
		<g>
			<g>
				<g>
					<circle cx="276.7" cy="202.6" r="5" style="fill:#383A48;"/>
				</g>
			</g>
		</g>
		<g>
			<g>
				<g>
					<circle cx="276.7" cy="227.3" r="5" style="fill:#383A48;"/>
				</g>
			</g>
		</g>
		<g>
			<g>
				<g>
					<circle cx="276.7" cy="252" r="5" style="fill:#383A48;"/>
				</g>
			</g>
		</g>
		<g>
			<g>
				<g>
					<circle cx="276.7" cy="276.7" r="5" style="fill:#383A48;"/>
				</g>
			</g>
		</g>
		<g>
			<g>
				<g>
					<circle cx="276.7" cy="301.4" r="5" style="fill:#383A48;"/>
				</g>
			</g>
		</g>
		<g>
			<g>
				<g>
					<circle cx="276.7" cy="326.1" r="5" style="fill:#383A48;"/>
				</g>
			</g>
		</g>
		<g>
			<g>
				<g>
					<circle cx="252" cy="5" r="5" style="fill:#383A48;"/>
				</g>
			</g>
		</g>
		<g>
			<g>
				<g>
					<circle cx="252" cy="29.7" r="5" style="fill:#383A48;"/>
				</g>
			</g>
		</g>
		<g>
			<g>
				<g>
					<circle cx="252" cy="54.4" r="5" style="fill:#383A48;"/>
				</g>
			</g>
		</g>
		<g>
			<g>
				<g>
					<circle cx="252" cy="79.1" r="5" style="fill:#383A48;"/>
				</g>
			</g>
		</g>
		<g>
			<g>
				<g>
					<circle cx="252" cy="103.8" r="5" style="fill:#383A48;"/>
				</g>
			</g>
		</g>
		<g>
			<g>
				<g>
					<circle cx="252" cy="128.5" r="5" style="fill:#383A48;"/>
				</g>
			</g>
		</g>
		<g>
			<g>
				<g>
					<circle cx="252" cy="153.2" r="5" style="fill:#383A48;"/>
				</g>
			</g>
		</g>
		<g>
			<g>
				<g>
					<circle cx="252" cy="177.9" r="5" style="fill:#383A48;"/>
				</g>
			</g>
		</g>
		<g>
			<g>
				<g>
					<circle cx="252" cy="202.6" r="5" style="fill:#383A48;"/>
				</g>
			</g>
		</g>
		<g>
			<g>
				<g>
					<circle cx="252" cy="227.3" r="5" style="fill:#383A48;"/>
				</g>
			</g>
		</g>
		<g>
			<g>
				<g>
					<circle cx="252" cy="252" r="5" style="fill:#383A48;"/>
				</g>
			</g>
		</g>
		<g>
			<g>
				<g>
					<circle cx="252" cy="276.7" r="5" style="fill:#383A48;"/>
				</g>
			</g>
		</g>
		<g>
			<g>
				<g>
					<circle cx="252" cy="301.4" r="5" style="fill:#383A48;"/>
				</g>
			</g>
		</g>
		<g>
			<g>
				<g>
					<circle cx="252" cy="326.1" r="5" style="fill:#383A48;"/>
				</g>
			</g>
		</g>
		<g>
			<g>
				<g>
					<circle cx="227.3" cy="5" r="5" style="fill:#383A48;"/>
				</g>
			</g>
		</g>
		<g>
			<g>
				<g>
					<circle cx="227.3" cy="29.7" r="5" style="fill:#383A48;"/>
				</g>
			</g>
		</g>
		<g>
			<g>
				<g>
					<circle cx="227.3" cy="54.4" r="5" style="fill:#383A48;"/>
				</g>
			</g>
		</g>
		<g>
			<g>
				<g>
					<circle cx="227.3" cy="79.1" r="5" style="fill:#383A48;"/>
				</g>
			</g>
		</g>
		<g>
			<g>
				<g>
					<circle cx="227.3" cy="103.8" r="5" style="fill:#383A48;"/>
				</g>
			</g>
		</g>
		<g>
			<g>
				<g>
					<circle cx="227.3" cy="128.5" r="5" style="fill:#383A48;"/>
				</g>
			</g>
		</g>
		<g>
			<g>
				<g>
					<circle cx="227.3" cy="153.2" r="5" style="fill:#383A48;"/>
				</g>
			</g>
		</g>
		<g>
			<g>
				<g>
					<circle cx="227.3" cy="177.9" r="5" style="fill:#383A48;"/>
				</g>
			</g>
		</g>
		<g>
			<g>
				<g>
					<circle cx="227.3" cy="202.6" r="5" style="fill:#383A48;"/>
				</g>
			</g>
		</g>
		<g>
			<g>
				<g>
					<circle cx="227.3" cy="227.3" r="5" style="fill:#383A48;"/>
				</g>
			</g>
		</g>
		<g>
			<g>
				<g>
					<circle cx="227.3" cy="252" r="5" style="fill:#383A48;"/>
				</g>
			</g>
		</g>
		<g>
			<g>
				<g>
					<circle cx="227.3" cy="276.7" r="5" style="fill:#383A48;"/>
				</g>
			</g>
		</g>
		<g>
			<g>
				<g>
					<circle cx="227.3" cy="301.4" r="5" style="fill:#383A48;"/>
				</g>
			</g>
		</g>
		<g>
			<g>
				<g>
					<circle cx="227.3" cy="326.1" r="5" style="fill:#383A48;"/>
				</g>
			</g>
		</g>
		<g>
			<g>
				<g>
					<circle cx="202.6" cy="5" r="5" style="fill:#383A48;"/>
				</g>
			</g>
		</g>
		<g>
			<g>
				<g>
					<circle cx="202.6" cy="29.7" r="5" style="fill:#383A48;"/>
				</g>
			</g>
		</g>
		<g>
			<g>
				<g>
					<circle cx="202.6" cy="54.4" r="5" style="fill:#383A48;"/>
				</g>
			</g>
		</g>
		<g>
			<g>
				<g>
					<circle cx="202.6" cy="79.1" r="5" style="fill:#383A48;"/>
				</g>
			</g>
		</g>
		<g>
			<g>
				<g>
					<circle cx="202.6" cy="103.8" r="5" style="fill:#383A48;"/>
				</g>
			</g>
		</g>
		<g>
			<g>
				<g>
					<circle cx="202.6" cy="128.5" r="5" style="fill:#383A48;"/>
				</g>
			</g>
		</g>
		<g>
			<g>
				<g>
					<circle cx="202.6" cy="153.2" r="5" style="fill:#383A48;"/>
				</g>
			</g>
		</g>
		<g>
			<g>
				<g>
					<circle cx="202.6" cy="177.9" r="5" style="fill:#383A48;"/>
				</g>
			</g>
		</g>
		<g>
			<g>
				<g>
					<circle cx="202.6" cy="202.6" r="5" style="fill:#383A48;"/>
				</g>
			</g>
		</g>
		<g>
			<g>
				<g>
					<circle cx="202.6" cy="227.3" r="5" style="fill:#383A48;"/>
				</g>
			</g>
		</g>
		<g>
			<g>
				<g>
					<circle cx="202.6" cy="252" r="5" style="fill:#383A48;"/>
				</g>
			</g>
		</g>
		<g>
			<g>
				<g>
					<circle cx="202.6" cy="276.7" r="5" style="fill:#383A48;"/>
				</g>
			</g>
		</g>
		<g>
			<g>
				<g>
					<circle cx="202.6" cy="301.4" r="5" style="fill:#383A48;"/>
				</g>
			</g>
		</g>
		<g>
			<g>
				<g>
					<circle cx="202.6" cy="326.1" r="5" style="fill:#383A48;"/>
				</g>
			</g>
		</g>
		<g>
			<g>
				<g>
					<circle cx="177.9" cy="5" r="5" style="fill:#383A48;"/>
				</g>
			</g>
		</g>
		<g>
			<g>
				<g>
					<circle cx="177.9" cy="29.7" r="5" style="fill:#383A48;"/>
				</g>
			</g>
		</g>
		<g>
			<g>
				<g>
					<circle cx="177.9" cy="54.4" r="5" style="fill:#383A48;"/>
				</g>
			</g>
		</g>
		<g>
			<g>
				<g>
					<circle cx="177.9" cy="79.1" r="5" style="fill:#383A48;"/>
				</g>
			</g>
		</g>
		<g>
			<g>
				<g>
					<circle cx="177.9" cy="103.8" r="5" style="fill:#383A48;"/>
				</g>
			</g>
		</g>
		<g>
			<g>
				<g>
					<circle cx="177.9" cy="128.5" r="5" style="fill:#383A48;"/>
				</g>
			</g>
		</g>
		<g>
			<g>
				<g>
					<circle cx="177.9" cy="153.2" r="5" style="fill:#383A48;"/>
				</g>
			</g>
		</g>
		<g>
			<g>
				<g>
					<circle cx="177.9" cy="177.9" r="5" style="fill:#383A48;"/>
				</g>
			</g>
		</g>
		<g>
			<g>
				<g>
					<circle cx="177.9" cy="202.6" r="5" style="fill:#383A48;"/>
				</g>
			</g>
		</g>
		<g>
			<g>
				<g>
					<circle cx="177.9" cy="227.3" r="5" style="fill:#383A48;"/>
				</g>
			</g>
		</g>
		<g>
			<g>
				<g>
					<circle cx="177.9" cy="252" r="5" style="fill:#383A48;"/>
				</g>
			</g>
		</g>
		<g>
			<g>
				<g>
					<circle cx="177.9" cy="276.7" r="5" style="fill:#383A48;"/>
				</g>
			</g>
		</g>
		<g>
			<g>
				<g>
					<circle cx="177.9" cy="301.4" r="5" style="fill:#383A48;"/>
				</g>
			</g>
		</g>
		<g>
			<g>
				<g>
					<circle cx="177.9" cy="326.1" r="5" style="fill:#383A48;"/>
				</g>
			</g>
		</g>
		<g>
			<g>
				<g>
					<circle cx="153.2" cy="5" r="5" style="fill:#383A48;"/>
				</g>
			</g>
		</g>
		<g>
			<g>
				<g>
					<circle cx="153.2" cy="29.7" r="5" style="fill:#383A48;"/>
				</g>
			</g>
		</g>
		<g>
			<g>
				<g>
					<circle cx="153.2" cy="54.4" r="5" style="fill:#383A48;"/>
				</g>
			</g>
		</g>
		<g>
			<g>
				<g>
					<circle cx="153.2" cy="79.1" r="5" style="fill:#383A48;"/>
				</g>
			</g>
		</g>
		<g>
			<g>
				<g>
					<circle cx="153.2" cy="103.8" r="5" style="fill:#383A48;"/>
				</g>
			</g>
		</g>
		<g>
			<g>
				<g>
					<circle cx="153.2" cy="128.5" r="5" style="fill:#383A48;"/>
				</g>
			</g>
		</g>
		<g>
			<g>
				<g>
					<circle cx="153.2" cy="153.2" r="5" style="fill:#383A48;"/>
				</g>
			</g>
		</g>
		<g>
			<g>
				<g>
					<circle cx="153.2" cy="177.9" r="5" style="fill:#383A48;"/>
				</g>
			</g>
		</g>
		<g>
			<g>
				<g>
					<circle cx="153.2" cy="202.6" r="5" style="fill:#383A48;"/>
				</g>
			</g>
		</g>
		<g>
			<g>
				<g>
					<circle cx="153.2" cy="227.3" r="5" style="fill:#383A48;"/>
				</g>
			</g>
		</g>
		<g>
			<g>
				<g>
					<circle cx="153.2" cy="252" r="5" style="fill:#383A48;"/>
				</g>
			</g>
		</g>
		<g>
			<g>
				<g>
					<circle cx="153.2" cy="276.7" r="5" style="fill:#383A48;"/>
				</g>
			</g>
		</g>
		<g>
			<g>
				<g>
					<circle cx="153.2" cy="301.4" r="5" style="fill:#383A48;"/>
				</g>
			</g>
		</g>
		<g>
			<g>
				<g>
					<circle cx="153.2" cy="326.1" r="5" style="fill:#383A48;"/>
				</g>
			</g>
		</g>
		<g>
			<g>
				<g>
					<circle cx="128.5" cy="5" r="5" style="fill:#383A48;"/>
				</g>
			</g>
		</g>
		<g>
			<g>
				<g>
					<circle cx="128.5" cy="29.7" r="5" style="fill:#383A48;"/>
				</g>
			</g>
		</g>
		<g>
			<g>
				<g>
					<circle cx="128.5" cy="54.4" r="5" style="fill:#383A48;"/>
				</g>
			</g>
		</g>
		<g>
			<g>
				<g>
					<circle cx="128.5" cy="79.1" r="5" style="fill:#383A48;"/>
				</g>
			</g>
		</g>
		<g>
			<g>
				<g>
					<circle cx="128.5" cy="103.8" r="5" style="fill:#383A48;"/>
				</g>
			</g>
		</g>
		<g>
			<g>
				<g>
					<circle cx="128.5" cy="128.5" r="5" style="fill:#383A48;"/>
				</g>
			</g>
		</g>
		<g>
			<g>
				<g>
					<circle cx="128.5" cy="153.2" r="5" style="fill:#383A48;"/>
				</g>
			</g>
		</g>
		<g>
			<g>
				<g>
					<circle cx="128.5" cy="177.9" r="5" style="fill:#383A48;"/>
				</g>
			</g>
		</g>
		<g>
			<g>
				<g>
					<circle cx="128.5" cy="202.6" r="5" style="fill:#383A48;"/>
				</g>
			</g>
		</g>
		<g>
			<g>
				<g>
					<circle cx="128.5" cy="227.3" r="5" style="fill:#383A48;"/>
				</g>
			</g>
		</g>
		<g>
			<g>
				<g>
					<circle cx="128.5" cy="252" r="5" style="fill:#383A48;"/>
				</g>
			</g>
		</g>
		<g>
			<g>
				<g>
					<circle cx="128.5" cy="276.7" r="5" style="fill:#383A48;"/>
				</g>
			</g>
		</g>
		<g>
			<g>
				<g>
					<circle cx="128.5" cy="301.4" r="5" style="fill:#383A48;"/>
				</g>
			</g>
		</g>
		<g>
			<g>
				<g>
					<circle cx="128.5" cy="326.1" r="5" style="fill:#383A48;"/>
				</g>
			</g>
		</g>
		<g>
			<g>
				<g>
					<circle cx="103.8" cy="5" r="5" style="fill:#383A48;"/>
				</g>
			</g>
		</g>
		<g>
			<g>
				<g>
					<circle cx="103.8" cy="29.7" r="5" style="fill:#383A48;"/>
				</g>
			</g>
		</g>
		<g>
			<g>
				<g>
					<circle cx="103.8" cy="54.4" r="5" style="fill:#383A48;"/>
				</g>
			</g>
		</g>
		<g>
			<g>
				<g>
					<circle cx="103.8" cy="79.1" r="5" style="fill:#383A48;"/>
				</g>
			</g>
		</g>
		<g>
			<g>
				<g>
					<circle cx="103.8" cy="103.8" r="5" style="fill:#383A48;"/>
				</g>
			</g>
		</g>
		<g>
			<g>
				<g>
					<circle cx="103.8" cy="128.5" r="5" style="fill:#383A48;"/>
				</g>
			</g>
		</g>
		<g>
			<g>
				<g>
					<circle cx="103.8" cy="153.2" r="5" style="fill:#383A48;"/>
				</g>
			</g>
		</g>
		<g>
			<g>
				<g>
					<circle cx="103.8" cy="177.9" r="5" style="fill:#383A48;"/>
				</g>
			</g>
		</g>
		<g>
			<g>
				<g>
					<circle cx="103.8" cy="202.6" r="5" style="fill:#383A48;"/>
				</g>
			</g>
		</g>
		<g>
			<g>
				<g>
					<circle cx="103.8" cy="227.3" r="5" style="fill:#383A48;"/>
				</g>
			</g>
		</g>
		<g>
			<g>
				<g>
					<circle cx="103.8" cy="252" r="5" style="fill:#383A48;"/>
				</g>
			</g>
		</g>
		<g>
			<g>
				<g>
					<circle cx="103.8" cy="276.7" r="5" style="fill:#383A48;"/>
				</g>
			</g>
		</g>
		<g>
			<g>
				<g>
					<circle cx="103.8" cy="301.4" r="5" style="fill:#383A48;"/>
				</g>
			</g>
		</g>
		<g>
			<g>
				<g>
					<circle cx="103.8" cy="326.1" r="5" style="fill:#383A48;"/>
				</g>
			</g>
		</g>
		<g>
			<g>
				<g>
					<circle cx="79.1" cy="5" r="5" style="fill:#383A48;"/>
				</g>
			</g>
		</g>
		<g>
			<g>
				<g>
					<circle cx="79.1" cy="29.7" r="5" style="fill:#383A48;"/>
				</g>
			</g>
		</g>
		<g>
			<g>
				<g>
					<circle cx="79.1" cy="54.4" r="5" style="fill:#383A48;"/>
				</g>
			</g>
		</g>
		<g>
			<g>
				<g>
					<circle cx="79.1" cy="79.1" r="5" style="fill:#383A48;"/>
				</g>
			</g>
		</g>
		<g>
			<g>
				<g>
					<circle cx="79.1" cy="103.8" r="5" style="fill:#383A48;"/>
				</g>
			</g>
		</g>
		<g>
			<g>
				<g>
					<circle cx="79.1" cy="128.5" r="5" style="fill:#383A48;"/>
				</g>
			</g>
		</g>
		<g>
			<g>
				<g>
					<circle cx="79.1" cy="153.2" r="5" style="fill:#383A48;"/>
				</g>
			</g>
		</g>
		<g>
			<g>
				<g>
					<circle cx="79.1" cy="177.9" r="5" style="fill:#383A48;"/>
				</g>
			</g>
		</g>
		<g>
			<g>
				<g>
					<circle cx="79.1" cy="202.6" r="5" style="fill:#383A48;"/>
				</g>
			</g>
		</g>
		<g>
			<g>
				<g>
					<circle cx="79.1" cy="227.3" r="5" style="fill:#383A48;"/>
				</g>
			</g>
		</g>
		<g>
			<g>
				<g>
					<circle cx="79.1" cy="252" r="5" style="fill:#383A48;"/>
				</g>
			</g>
		</g>
		<g>
			<g>
				<g>
					<circle cx="79.1" cy="276.7" r="5" style="fill:#383A48;"/>
				</g>
			</g>
		</g>
		<g>
			<g>
				<g>
					<circle cx="79.1" cy="301.4" r="5" style="fill:#383A48;"/>
				</g>
			</g>
		</g>
		<g>
			<g>
				<g>
					<circle cx="79.1" cy="326.1" r="5" style="fill:#383A48;"/>
				</g>
			</g>
		</g>
		<g>
			<g>
				<g>
					<circle cx="54.4" cy="5" r="5" style="fill:#383A48;"/>
				</g>
			</g>
		</g>
		<g>
			<g>
				<g>
					<circle cx="54.4" cy="29.7" r="5" style="fill:#383A48;"/>
				</g>
			</g>
		</g>
		<g>
			<g>
				<g>
					<circle cx="54.4" cy="54.4" r="5" style="fill:#383A48;"/>
				</g>
			</g>
		</g>
		<g>
			<g>
				<g>
					<circle cx="54.4" cy="79.1" r="5" style="fill:#383A48;"/>
				</g>
			</g>
		</g>
		<g>
			<g>
				<g>
					<circle cx="54.4" cy="103.8" r="5" style="fill:#383A48;"/>
				</g>
			</g>
		</g>
		<g>
			<g>
				<g>
					<circle cx="54.4" cy="128.5" r="5" style="fill:#383A48;"/>
				</g>
			</g>
		</g>
		<g>
			<g>
				<g>
					<circle cx="54.4" cy="153.2" r="5" style="fill:#383A48;"/>
				</g>
			</g>
		</g>
		<g>
			<g>
				<g>
					<circle cx="54.4" cy="177.9" r="5" style="fill:#383A48;"/>
				</g>
			</g>
		</g>
		<g>
			<g>
				<g>
					<circle cx="54.4" cy="202.6" r="5" style="fill:#383A48;"/>
				</g>
			</g>
		</g>
		<g>
			<g>
				<g>
					<circle cx="54.4" cy="227.3" r="5" style="fill:#383A48;"/>
				</g>
			</g>
		</g>
		<g>
			<g>
				<g>
					<circle cx="54.4" cy="252" r="5" style="fill:#383A48;"/>
				</g>
			</g>
		</g>
		<g>
			<g>
				<g>
					<circle cx="54.4" cy="276.7" r="5" style="fill:#383A48;"/>
				</g>
			</g>
		</g>
		<g>
			<g>
				<g>
					<circle cx="54.4" cy="301.4" r="5" style="fill:#383A48;"/>
				</g>
			</g>
		</g>
		<g>
			<g>
				<g>
					<circle cx="54.4" cy="326.1" r="5" style="fill:#383A48;"/>
				</g>
			</g>
		</g>
		<g>
			<g>
				<g>
					<circle cx="29.7" cy="5" r="5" style="fill:#383A48;"/>
				</g>
			</g>
		</g>
		<g>
			<g>
				<g>
					<circle cx="29.7" cy="29.7" r="5" style="fill:#383A48;"/>
				</g>
			</g>
		</g>
		<g>
			<g>
				<g>
					<circle cx="29.7" cy="54.4" r="5" style="fill:#383A48;"/>
				</g>
			</g>
		</g>
		<g>
			<g>
				<g>
					<circle cx="29.7" cy="79.1" r="5" style="fill:#383A48;"/>
				</g>
			</g>
		</g>
		<g>
			<g>
				<g>
					<circle cx="29.7" cy="103.8" r="5" style="fill:#383A48;"/>
				</g>
			</g>
		</g>
		<g>
			<g>
				<g>
					<circle cx="29.7" cy="128.5" r="5" style="fill:#383A48;"/>
				</g>
			</g>
		</g>
		<g>
			<g>
				<g>
					<circle cx="29.7" cy="153.2" r="5" style="fill:#383A48;"/>
				</g>
			</g>
		</g>
		<g>
			<g>
				<g>
					<circle cx="29.7" cy="177.9" r="5" style="fill:#383A48;"/>
				</g>
			</g>
		</g>
		<g>
			<g>
				<g>
					<circle cx="29.7" cy="202.6" r="5" style="fill:#383A48;"/>
				</g>
			</g>
		</g>
		<g>
			<g>
				<g>
					<circle cx="29.7" cy="227.3" r="5" style="fill:#383A48;"/>
				</g>
			</g>
		</g>
		<g>
			<g>
				<g>
					<circle cx="29.7" cy="252" r="5" style="fill:#383A48;"/>
				</g>
			</g>
		</g>
		<g>
			<g>
				<g>
					<circle cx="29.7" cy="276.7" r="5" style="fill:#383A48;"/>
				</g>
			</g>
		</g>
		<g>
			<g>
				<g>
					<circle cx="29.7" cy="301.4" r="5" style="fill:#383A48;"/>
				</g>
			</g>
		</g>
		<g>
			<g>
				<g>
					<circle cx="29.7" cy="326.1" r="5" style="fill:#383A48;"/>
				</g>
			</g>
		</g>
		<g>
			<g>
				<g>
					<circle cx="5" cy="5" r="5" style="fill:#383A48;"/>
				</g>
			</g>
		</g>
		<g>
			<g>
				<g>
					<circle cx="5" cy="29.7" r="5" style="fill:#383A48;"/>
				</g>
			</g>
		</g>
		<g>
			<g>
				<g>
					<circle cx="5" cy="54.4" r="5" style="fill:#383A48;"/>
				</g>
			</g>
		</g>
		<g>
			<g>
				<g>
					<circle cx="5" cy="79.1" r="5" style="fill:#383A48;"/>
				</g>
			</g>
		</g>
		<g>
			<g>
				<g>
					<circle cx="5" cy="103.8" r="5" style="fill:#383A48;"/>
				</g>
			</g>
		</g>
		<g>
			<g>
				<g>
					<circle cx="5" cy="128.5" r="5" style="fill:#383A48;"/>
				</g>
			</g>
		</g>
		<g>
			<g>
				<g>
					<circle cx="5" cy="153.2" r="5" style="fill:#383A48;"/>
				</g>
			</g>
		</g>
		<g>
			<g>
				<g>
					<circle cx="5" cy="177.9" r="5" style="fill:#383A48;"/>
				</g>
			</g>
		</g>
		<g>
			<g>
				<g>
					<circle cx="5" cy="202.6" r="5" style="fill:#383A48;"/>
				</g>
			</g>
		</g>
		<g>
			<g>
				<g>
					<circle cx="5" cy="227.3" r="5" style="fill:#383A48;"/>
				</g>
			</g>
		</g>
		<g>
			<g>
				<g>
					<circle cx="5" cy="252" r="5" style="fill:#383A48;"/>
				</g>
			</g>
		</g>
		<g>
			<g>
				<g>
					<circle cx="5" cy="276.7" r="5" style="fill:#383A48;"/>
				</g>
			</g>
		</g>
		<g>
			<g>
				<g>
					<circle cx="5" cy="301.4" r="5" style="fill:#383A48;"/>
				</g>
			</g>
		</g>
		<g>
			<g>
				<g>
					<circle cx="5" cy="326.1" r="5" style="fill:#383A48;"/>
				</g>
			</g>
		</g>
	</g>
</g>
</g></g></g><!--ITEM 2--><g><defs><clipPath id="clip-path-id-viewbox-item-2"><rect x="0.0" y="0.0" width="602.3" height="504.1"/></clipPath></defs><g transform="translate(486.0 56.0) rotate(0.0 238.5 199.5) scale(0.7919641374730202 0.7915096211069232)"><g clip-path="url(#clip-path-id-viewbox-item-2)" transform="translate(-0.0 -0.0)"><path d="M538.5,4.9H63.8A58.767,58.767,0,0,0,5,63.7V320.5a58.767,58.767,0,0,0,58.8,58.8H90.7L24.8,499,174.4,379.3H538.5a58.767,58.767,0,0,0,58.8-58.8V63.8A58.853,58.853,0,0,0,538.5,4.9Z" fill="#f3f6e6"/><path d="M24.9,504.1a4.9,4.9,0,0,1-3.2-1.2,5.044,5.044,0,0,1-1.2-6.2L82.3,384.4H63.8A63.846,63.846,0,0,1,0,320.6V63.8A63.846,63.846,0,0,1,63.8,0H538.5a63.846,63.846,0,0,1,63.8,63.8V320.5a63.846,63.846,0,0,1-63.8,63.8H176.2L28,503A5.1,5.1,0,0,1,24.9,504.1ZM63.8,9.9A53.817,53.817,0,0,0,10,63.7V320.5a53.817,53.817,0,0,0,53.8,53.8H90.7a4.837,4.837,0,0,1,4.3,2.5,5.218,5.218,0,0,1,.1,5L41.4,479.5l129.9-104a5.1,5.1,0,0,1,3.1-1.1H538.5a53.817,53.817,0,0,0,53.8-53.8V63.8A53.817,53.817,0,0,0,538.5,10H63.8Z" fill="#383a48"/></g></g></g><!--ITEM 3--><g><defs><clipPath id="clip-path-id-viewbox-item-3"><rect x="0.0" y="0.0" width="730.6" height="443.0"/></clipPath></defs><g transform="translate(570.0 108.0) rotate(0.0 156.0 94.5) scale(0.42704626334519574 0.42663656884875845)"><g clip-path="url(#clip-path-id-viewbox-item-3)" transform="translate(-0.0 -0.0)"><g id="Layer_1_1_-i3">
	<g>
		<g>
			<g>
				<path d="M591.8,24.3c-73.4,0.4-132.2,61.1-132.2,134.5v32.3H5V342c0,10.9,8.8,19.8,19.8,19.8l0,0      c10.9,0,19.8-8.8,19.8-19.8v-50.2h37.1v29.6c0,10.9,8.8,19.8,19.8,19.8l0,0c10.9,0,19.8-8.8,19.8-19.8v-50.2h338.3v32.3      c0,73.4,58.8,134,132.2,134.5c73.7,0.4,133.8-59.4,133.8-133V157.3C725.6,83.7,665.5,23.9,591.8,24.3z M655.6,304.9      c0,34.7-28.3,63-63,63s-63-28.3-63-63V157.3c0-34.7,28.3-63,63-63s63,28.3,63,63V304.9z" style="fill:#383A48;"/>
				<path d="M592.5,443c-0.3,0-0.5,0-0.8,0c-75.6-0.5-137.2-63.1-137.2-139.5v-27.3H126.3v45.2      c0,13.7-11.1,24.8-24.8,24.8s-24.8-11.1-24.8-24.8v-24.6H49.6V342c0,13.7-11.1,24.8-24.8,24.8S0,355.7,0,342V191.1      c0-2.8,2.2-5,5-5h449.6v-27.3c0-76.5,61.5-139.1,137.2-139.5l0,0c37-0.2,71.8,14.1,98.1,40.2c26.3,26.1,40.7,60.8,40.7,97.8V305      c0,36.9-14.5,71.7-40.7,97.8C663.8,428.7,629.2,443,592.5,443z M121.3,266.2h338.3c2.8,0,5,2.2,5,5v32.3      c0,70.9,57.1,129,127.2,129.5c34.3,0.2,66.6-13.1,91-37.3c24.4-24.2,37.8-56.4,37.8-90.7V157.3c0-34.3-13.4-66.5-37.8-90.7      c-24.2-24.1-56.2-37.3-90.3-37.3c-0.2,0-0.5,0-0.7,0l0,0c-70.2,0.4-127.2,58.5-127.2,129.5v32.3c0,2.8-2.2,5-5,5H10V342      c0,8.2,6.6,14.8,14.8,14.8c8.2,0,14.8-6.6,14.8-14.8v-50.2c0-2.8,2.2-5,5-5h37.1c2.8,0,5,2.2,5,5v29.6c0,8.2,6.6,14.8,14.8,14.8      s14.8-6.6,14.8-14.8v-50.2C116.3,268.4,118.5,266.2,121.3,266.2z M592.6,372.9c-37.5,0-68-30.5-68-68V157.3      c0-37.5,30.5-68,68-68s68,30.5,68,68v147.6C660.6,342.4,630.1,372.9,592.6,372.9z M592.6,99.3c-32,0-58,26-58,58v147.6      c0,32,26,58,58,58s58-26,58-58V157.3C650.6,125.3,624.6,99.3,592.6,99.3z" style="fill:#383A48;"/>
			</g>
		</g>
		<g>
			<g>
				<path d="M591.8,5c-73.4,0.4-132.2,61.1-132.2,134.5v32.3H5v150.9c0,10.9,8.8,19.8,19.8,19.8l0,0      c10.9,0,19.8-8.8,19.8-19.8v-50.2h37.1v29.6c0,10.9,8.8,19.8,19.8,19.8l0,0c10.9,0,19.8-8.8,19.8-19.8v-50.2h338.3v32.3      c0,73.4,58.8,134,132.2,134.5c73.7,0.4,133.8-59.4,133.8-133V138C725.6,64.4,665.5,4.6,591.8,5z M655.6,285.6      c0,34.7-28.3,63-63,63s-63-28.3-63-63V138c0-34.7,28.3-63,63-63s63,28.3,63,63V285.6z" style="fill:#F6E049;"/>
				<path d="M592.5,423.7c-0.3,0-0.5,0-0.8,0c-75.6-0.5-137.2-63.1-137.2-139.5v-27.3H126.3v45.2      c0,13.7-11.1,24.8-24.8,24.8s-24.8-11.1-24.8-24.8v-24.6H49.6v45.2c0,13.7-11.1,24.8-24.8,24.8S0,336.4,0,322.7V171.8      c0-2.8,2.2-5,5-5h449.6v-27.3C454.6,63,516.1,0.4,591.8,0l0,0c37-0.2,71.8,14.1,98.1,40.2c26.3,26.1,40.7,60.8,40.7,97.8v147.7      c0,36.9-14.5,71.7-40.7,97.8C663.8,409.4,629.2,423.7,592.5,423.7z M121.3,246.9h338.3c2.8,0,5,2.2,5,5v32.3      c0,70.9,57.1,129,127.2,129.5c34.3,0.2,66.6-13.1,91-37.3c24.4-24.2,37.8-56.4,37.8-90.7V138c0-34.3-13.4-66.5-37.8-90.7      C658.6,23.2,626.6,10,592.5,10c-0.2,0-0.5,0-0.7,0l0,0c-70.2,0.4-127.2,58.5-127.2,129.5v32.3c0,2.8-2.2,5-5,5H10v145.9      c0,8.2,6.6,14.8,14.8,14.8c8.2,0,14.8-6.6,14.8-14.8v-50.2c0-2.8,2.2-5,5-5h37.1c2.8,0,5,2.2,5,5v29.6c0,8.2,6.6,14.8,14.8,14.8      s14.8-6.6,14.8-14.8v-50.2C116.3,249.1,118.5,246.9,121.3,246.9z M592.6,353.6c-37.5,0-68-30.5-68-68V138c0-37.5,30.5-68,68-68      s68,30.5,68,68v147.6C660.6,323.1,630.1,353.6,592.6,353.6z M592.6,80c-32,0-58,26-58,58v147.6c0,32,26,58,58,58s58-26,58-58      V138C650.6,106,624.6,80,592.6,80z" style="fill:#383A48;"/>
			</g>
		</g>
	</g>
</g>
<g id="Isolation_Mode-i3">
</g>
</g></g></g><!--ITEM 4--><g><defs><clipPath id="clip-path-id-viewbox-item-4"><rect x="0.0" y="0.0" width="135.8" height="135.9"/></clipPath></defs><g transform="translate(593.0 552.0) rotate(-180.0 132.0 132.0) scale(1.9440353460972015 1.9426048565121412)"><g clip-path="url(#clip-path-id-viewbox-item-4)" transform="translate(-0.0 -0.0)"><g>
	<polygon points="5,130.9 5,5 130.8,5  " style="fill:#383A48;"/>
	<path d="M5,135.9c-0.6,0-1.3-0.1-1.9-0.4c-1.9-0.8-3.1-2.6-3.1-4.6V5c0-2.8,2.2-5,5-5h125.8c2,0,3.8,1.2,4.6,3.1   c0.8,1.9,0.3,4-1.1,5.4L8.5,134.4C7.6,135.4,6.3,135.9,5,135.9z M10,10v108.8L118.7,10H10z" style="fill:#383A48;"/>
</g>
</g></g></g><!--ITEM 5--><g><defs><clipPath id="clip-path-id-viewbox-item-5"><rect x="0.0" y="0.0" width="538.493" height="693.0"/></clipPath></defs><g transform="translate(691.0 681.0) rotate(0.0 135.5 174.5) scale(0.5032563097384738 0.5036075036075036)"><g clip-path="url(#clip-path-id-viewbox-item-5)" transform="translate(-0.0 -0.0)"><g>
	<g>
		<path style="fill:#e0719e;" d="M269.247,92.158c47.676,0,92.498,18.869,126.21,53.131c31.323,31.834,49.571,73.416,51.999,118.015    H91.037c2.429-44.599,20.676-86.181,51.999-118.015C176.748,111.027,221.571,92.158,269.247,92.158 M269.247,5L269.247,5    C123.307,5,5,125.237,5,273.558v76.904h528.493v-76.904C533.493,125.237,415.186,5,269.247,5L269.247,5z"/>
		<path style="fill:#383A47;" d="M533.493,355.462H5c-2.761,0-5-2.239-5-5v-76.904c0-73.055,27.997-141.741,78.832-193.406    C129.689,28.465,197.313,0,269.246,0h0.001c71.934,0,139.557,28.465,190.414,80.152c50.835,51.665,78.832,120.351,78.832,193.406    v76.904C538.493,353.223,536.254,355.462,533.493,355.462z M10,345.462h518.493v-71.904C528.493,128.232,412.196,10,269.247,10    C126.298,10,10,128.232,10,273.558V345.462z M447.456,268.304H91.037c-1.374,0-2.686-0.565-3.63-1.562s-1.437-2.339-1.362-3.71    c2.489-45.704,21.463-88.764,53.428-121.25c34.659-35.225,80.748-54.624,129.774-54.624s95.115,19.399,129.774,54.624    c31.964,32.486,50.939,75.547,53.428,121.25c0.075,1.371-0.418,2.713-1.362,3.71S448.83,268.304,447.456,268.304z M96.395,258.304    h345.703c-3.474-41.3-21.182-80.012-50.205-109.509c-32.765-33.299-76.321-51.638-122.646-51.638s-89.882,18.339-122.646,51.638    C117.578,178.292,99.869,217.004,96.395,258.304z"/>
	</g>
	<g>
		<path style="fill:#e0719e;" d="M269.247,688L269.247,688C123.307,688,5,569.693,5,423.754V264.096h528.493v159.657    C533.493,569.693,415.186,688,269.247,688z"/>
		<path style="fill:#383A47;" d="M269.247,693c-71.918,0-139.533-28.006-190.387-78.86S0,495.672,0,423.754V264.096    c0-2.761,2.239-5,5-5h528.493c2.761,0,5,2.239,5,5v159.657c0,71.918-28.006,139.532-78.86,190.386S341.165,693,269.247,693z     M10,269.096v154.657C10,566.703,126.297,683,269.247,683h0c142.949,0,259.246-116.297,259.246-259.246V269.096H10z"/>
	</g>
	<path style="fill:#383A47;" d="M327.88,430.488c0-32.382-26.251-58.633-58.633-58.633s-58.633,26.251-58.633,58.633   c0,22.349,12.507,41.774,30.901,51.668v76.692h57.049v-77.59C316.084,471.119,327.88,452.187,327.88,430.488z"/>
</g>
</g></g></g><!--ITEM 6--><g><defs><clipPath id="clip-path-id-viewbox-item-6"><rect x="0.0" y="0.0" width="374.4" height="243.8"/></clipPath></defs><g transform="translate(448.0 118.0) rotate(-90.00000000000013 -182.0 118.5) scale(-0.9722222222222223 0.9721082854799015)"><g clip-path="url(#clip-path-id-viewbox-item-6)" transform="translate(-0.0 -0.0)"><g>
	<path d="M151.9,243.8c-0.6,0-1.1,0-1.7-0.1c-8.1-0.9-14.7-7.8-17.8-18.5c-2.2-7.6-3.9-15.3-5.1-23   c-10.3-4.9-22.2-8.2-34.8-9.7c-29.3-3.3-59.4,4.1-84.7,20.9c-2.3,1.5-5.4,0.9-6.9-1.4c-1.5-2.3-0.9-5.4,1.4-6.9   c27.3-18.1,59.7-26.1,91.4-22.5c11.4,1.3,22.4,4.1,32.2,8.1c-2.1-23.4,0.4-46.6,7.5-68.5c9.9-30.4,28.3-57.7,53.2-79   c24.9-21.3,54.7-35.4,86.3-40.7c33.5-5.6,67.6-1,98.7,13.4c2.5,1.2,3.6,4.1,2.4,6.6c-1.2,2.5-4.1,3.6-6.6,2.4   C338.1,11.3,306,6.9,274.5,12.2c-29.8,5-57.9,18.3-81.4,38.4c-23.5,20.1-40.8,45.9-50.2,74.5c-7.3,22.5-9.5,46.4-6.4,70.4   c9.8,5.3,18.2,12,24.3,19.6c5.7,7.1,7.1,15,3.8,21.2C162,241,157.2,243.8,151.9,243.8z M138.6,208.5c0.9,4.6,2.1,9.3,3.4,13.9   c1.9,6.7,5.4,10.9,9.3,11.3c1.9,0.2,3.6-0.6,4.4-2.1c1.4-2.5,0.3-6.2-2.8-10.1C149.1,216.7,144.3,212.4,138.6,208.5z" style="fill:#383A48;"/>
</g>
</g></g></g><!--ITEM 7--><g><defs><clipPath id="clip-path-id-viewbox-item-7"><rect x="0.0" y="0.0" width="615.0" height="740.0"/></clipPath></defs><g transform="translate(48.0 375.0) rotate(0.0 272.0 327.5) scale(0.8845528455284553 0.8851351351351351)"><g clip-path="url(#clip-path-id-viewbox-item-7)" transform="translate(-0.0 -0.0)"><g>
	<g>
		<path style="fill:#AAC4FA;" d="M610,695.5V735H5v-39.5c0-120.53,70.48-224.59,172.48-273.21c24.59-11.72,51.01-20.23,78.71-24.95    c16.68-2.86,33.82-4.34,51.31-4.34c17.15,0,33.96,1.43,50.33,4.17c28.06,4.69,54.82,13.26,79.69,25.12    C539.52,470.91,610,574.97,610,695.5z"/>
		<path style="fill:#383A47;" d="M610,740H5c-2.761,0-5-2.239-5-5v-39.5c0-59.221,16.87-116.719,48.786-166.278    c31.081-48.263,74.838-86.799,126.542-111.445c25.419-12.115,52.342-20.649,80.021-25.365    c33.758-5.789,69.319-5.861,103.306-0.172c28.058,4.689,55.316,13.282,81.017,25.538c51.703,24.646,95.46,63.182,126.542,111.445    C598.13,578.781,615,636.279,615,695.5V735C615,737.761,612.761,740,610,740z M10,730h595v-34.5    c0-114.107-66.584-219.577-169.631-268.696c-24.859-11.855-51.224-20.166-78.363-24.702c-32.889-5.505-67.303-5.435-99.971,0.167    c-26.776,4.563-52.816,12.817-77.403,24.536C76.584,475.923,10,581.393,10,695.5V730z"/>
	</g>
	<g>
		<path style="fill:#F3F6E7;" d="M437.52,422.29l-96.93,167.9L307.5,647.5l-33.97-58.83l-96.05-166.38    C216.86,403.51,260.95,393,307.5,393S398.14,403.51,437.52,422.29z"/>
		<path style="fill:#383A47;" d="M307.5,652.5c-1.786,0-3.437-0.953-4.33-2.5l-33.97-58.83l-96.05-166.38    c-0.697-1.208-0.858-2.651-0.445-3.983s1.364-2.43,2.623-3.03C216.759,398.019,261.228,388,307.5,388    s90.741,10.019,132.172,29.777c1.258,0.6,2.209,1.699,2.623,3.03s0.252,2.775-0.445,3.983L311.83,650    C310.937,651.547,309.286,652.5,307.5,652.5z M184.539,424.517L277.86,586.17L307.5,637.5l122.961-212.983    C391.788,406.919,350.448,398,307.5,398S223.211,406.919,184.539,424.517z"/>
	</g>
	<g>
		<path style="fill:#383A47;" d="M351.851,396.679C349.981,419.815,330.613,438,307.001,438c-23.568,0-42.891-18.106-44.832-41.171    c14.718-2.524,29.841-3.829,45.274-3.829C322.575,393,337.407,394.262,351.851,396.679z"/>
		<path style="fill:#383A47;" d="M307.001,443c-25.774,0-47.655-20.096-49.814-45.751c-0.218-2.586,1.58-4.909,4.137-5.348    c29.854-5.12,61.295-5.185,91.353-0.154c2.561,0.429,4.368,2.747,4.159,5.334C354.753,422.831,332.863,443,307.001,443z     M267.808,400.982C271.543,419.265,287.941,433,307.001,433c19.13,0,35.543-13.79,39.225-32.146    C320.337,397.017,293.532,397.071,267.808,400.982z"/>
	</g>
	<g>
		<polygon style="fill:#383A47;" points="340.59,590.19 307.5,647.5 273.53,588.67 287,419 327,419   "/>
		<path style="fill:#383A47;" d="M307.5,652.5c-1.786,0-3.437-0.953-4.33-2.5l-33.97-58.83c-0.506-0.877-0.734-1.887-0.654-2.896    l13.47-169.67c0.207-2.6,2.376-4.604,4.984-4.604h40c2.608,0,4.778,2.004,4.984,4.604l13.59,171.19    c0.08,1.009-0.148,2.019-0.654,2.896L311.83,650C310.937,651.547,309.286,652.5,307.5,652.5z M278.638,587.516L307.5,637.5    l27.982-48.464L322.381,424h-30.763L278.638,587.516z"/>
	</g>
	<g>
		<g>
			<path style="fill:#F6E258;" d="M502,200c0,107.7-87.3,195-195,195s-195-87.3-195-195c0-16.99,2.17-33.47,6.26-49.19     c11.17-43.02,36.67-80.27,71.1-106.34c14.92-11.31,31.51-20.51,49.35-27.18C259.96,9.34,282.97,5,307,5     c23.98,0,46.95,4.33,68.16,12.24c17.89,6.67,34.52,15.89,49.48,27.23c34.71,26.29,60.35,63.94,71.38,107.41     C499.92,167.27,502,183.39,502,200z"/>
			<path style="fill:#383A47;" d="M307,400c-110.28,0-200-89.72-200-200c0-17.099,2.16-34.072,6.421-50.449     c11.223-43.225,37.12-81.96,72.921-109.068c15.464-11.722,32.495-21.101,50.617-27.877C259.318,4.242,282.883,0,307,0     c24.048,0,47.568,4.224,69.907,12.556c18.16,6.771,35.236,16.167,50.753,27.929c36.124,27.361,62.123,66.486,73.206,110.166     C504.937,166.712,507,183.315,507,200C507,310.28,417.28,400,307,400z M307,10c-22.916,0-45.303,4.028-66.538,11.973     c-17.213,6.436-33.39,15.345-48.082,26.481c-34.017,25.757-58.621,62.553-69.281,103.612C119.052,167.624,117,183.75,117,200     c0,104.767,85.233,190,190,190s190-85.233,190-190c0-15.857-1.96-31.634-5.827-46.892     c-10.527-41.488-35.228-78.654-69.552-104.652c-14.742-11.174-30.961-20.1-48.208-26.53C352.196,14.012,329.851,10,307,10z"/>
		</g>
		<g>
			<path style="fill:#383A47;" d="M424.64,44.47c-9.46,10.55-20.32,19.82-32.28,27.51C367.74,87.82,338.44,97,307,97     c-31.61,0-61.06-9.28-85.76-25.28c-11.8-7.64-22.52-16.82-31.88-27.25c14.92-11.31,31.51-20.51,49.35-27.18     C259.96,9.34,282.97,5,307,5c23.98,0,46.95,4.33,68.16,12.24C393.05,23.91,409.68,33.13,424.64,44.47z"/>
			<path style="fill:#383A47;" d="M307,102c-31.541,0-62.136-9.02-88.478-26.084c-12.131-7.854-23.195-17.31-32.883-28.107     c-0.934-1.041-1.389-2.424-1.256-3.816c0.133-1.392,0.843-2.664,1.957-3.508c15.466-11.723,32.497-21.103,50.62-27.878     C259.318,4.242,282.883,0,307,0c24.048,0,47.568,4.224,69.907,12.555c18.16,6.771,35.236,16.168,50.753,27.93     c1.114,0.844,1.823,2.116,1.957,3.507c0.133,1.392-0.321,2.775-1.254,3.815c-9.792,10.919-20.995,20.467-33.299,28.378     C368.817,93.073,338.364,102,307,102z M196.842,45.173c8.166,8.47,17.266,15.972,27.116,22.349C248.678,83.536,277.394,92,307,92     c29.441,0,58.023-8.377,82.654-24.225c10.007-6.434,19.239-14.021,27.505-22.601c-13.53-9.651-28.222-17.461-43.746-23.249     C352.196,14.012,329.851,10,307,10c-22.916,0-45.303,4.028-66.538,11.973C224.974,27.764,210.325,35.557,196.842,45.173z"/>
		</g>
		<g>
			<g>
				<path style="fill:#383A47;" d="M238.71,17.29c-2.5,19.48-8.54,37.84-17.47,54.43c-21.13,39.31-58.42,68.63-102.98,79.09      c11.17-43.02,36.67-80.27,71.1-106.34C204.28,33.16,220.87,23.96,238.71,17.29z"/>
				<path style="fill:#383A47;" d="M118.26,155.81c-1.331,0-2.625-0.532-3.577-1.506c-1.224-1.253-1.703-3.055-1.263-4.75      c11.224-43.227,37.121-81.962,72.921-109.07c15.464-11.722,32.495-21.101,50.618-27.877c1.642-0.613,3.484-0.322,4.857,0.766      c1.374,1.088,2.076,2.816,1.854,4.554c-2.536,19.755-8.601,38.651-18.026,56.163c-22.146,41.199-60.87,70.938-106.241,81.588      C119.023,155.767,118.64,155.81,118.26,155.81z M232.41,25.196c-14.218,6.073-27.651,13.875-40.029,23.258      c-31.698,24.001-55.221,57.585-66.907,95.274c38.96-11.518,71.947-38.254,91.363-74.376      C224.313,55.461,229.536,40.645,232.41,25.196z"/>
			</g>
			<g>
				<path style="fill:#383A47;" d="M496.02,151.88c-44.97-10.47-82.56-40.14-103.66-79.9c-8.87-16.69-14.82-35.16-17.2-54.74      c17.89,6.67,34.52,15.89,49.48,27.23C459.35,70.76,484.99,108.41,496.02,151.88z"/>
				<path style="fill:#383A47;" d="M496.02,156.88c-0.377,0-0.757-0.042-1.134-0.13c-45.827-10.669-84.806-40.712-106.943-82.426      c-9.361-17.615-15.333-36.618-17.747-56.48c-0.211-1.733,0.498-3.45,1.869-4.531c1.371-1.08,3.206-1.367,4.841-0.758      c18.16,6.771,35.236,16.168,50.754,27.93c36.124,27.361,62.123,66.486,73.206,110.166c0.429,1.691-0.054,3.484-1.276,4.73      C498.639,156.351,497.347,156.88,496.02,156.88z M381.393,25.109c2.779,15.575,7.938,30.518,15.382,44.524      c19.434,36.621,52.691,63.658,92.094,75.201c-11.574-38.143-35.222-72.122-67.248-96.379      C409.174,39.021,395.675,31.189,381.393,25.109z"/>
			</g>
		</g>
		<g>
			<path style="fill:#383A47;" d="M307,312.25c-29.776,0-55.672-16.956-67.583-44.25c-1.104-2.531,0.052-5.478,2.583-6.582     c2.53-1.105,5.478,0.052,6.582,2.583c10.295,23.593,32.68,38.25,58.417,38.25s48.122-14.656,58.417-38.25     c1.104-2.531,4.052-3.688,6.582-2.583c2.531,1.104,3.688,4.051,2.583,6.582C362.672,295.294,336.776,312.25,307,312.25z"/>
			<circle style="fill:#383A47;" cx="244" cy="199" r="19"/>
			<circle style="fill:#383A47;" cx="370" cy="199" r="19"/>
		</g>
	</g>
	<path style="fill:#383A47;" d="M308,740c-2.761,0-5-2.239-5-5v-87c0-2.761,2.239-5,5-5s5,2.239,5,5v87   C313,737.761,310.761,740,308,740z"/>
</g>
</g></g></g><!--ITEM 8--><g><defs><clipPath id="clip-path-id-crop-item-8"><rect transform="scale(0.984180790960452 0.984180790960452)" x="68" y="98" width="213" height="167"/></clipPath><clipPath id="clip-path-id-viewbox-item-8"><rect x="0.0" y="0.0" width="348.4" height="348.4"/></clipPath></defs><g clip-path="url(#clip-path-id-crop-item-8)" transform="translate(145.0 388.0) rotate(0.0 177.0 177.0) scale(1.016073478760046 1.016073478760046)"><g clip-path="url(#clip-path-id-viewbox-item-8)" transform="translate(-0.0 -0.0)"><g>
	<g>
		<circle cx="174.2" cy="174.2" r="169.2" style="fill:#f6e258;"/>
		<path d="M174.2,348.4C78.1,348.4,0,270.3,0,174.2C0,78.1,78.1,0,174.2,0c96.1,0,174.2,78.1,174.2,174.2    C348.4,270.3,270.3,348.4,174.2,348.4z M174.2,10C83.7,10,10,83.7,10,174.2s73.7,164.2,164.2,164.2s164.2-73.7,164.2-164.2    S264.7,10,174.2,10z" style="fill:#383A48;"/>
	</g>
	<g>
		<circle cx="120.1" cy="149.6" r="18.1" style="fill:#383A48;"/>
	</g>
	<g>
		<circle cx="228.3" cy="149.6" r="18.1" style="fill:#383A48;"/>
	</g>
	<g>
		<path d="M228.3,215H120.1c-2.8,0-5-2.2-5-5s2.2-5,5-5h108.2c2.8,0,5,2.2,5,5S231.1,215,228.3,215z" style="fill:#383A48;"/>
	</g>
</g>
</g></g></g><!--ITEM 9--><g><defs><clipPath id="clip-path-id-viewbox-item-9"><rect x="0.0" y="0.0" width="543.0" height="548.5"/></clipPath></defs><g transform="translate(223.0 587.0) rotate(-150.82904549505903 124.5 126.0) scale(0.4585635359116022 0.4594348222424795)"><g clip-path="url(#clip-path-id-viewbox-item-9)" transform="translate(-0.0 -0.0)"><g>
	<path d="M231,345.5c0,0-0.1-6,10-6c11,0-18-12-18-12s-14,7-15,8s6,16,6,16L231,345.5z" style="fill:#F6E258;"/>
	<path d="M495.8,263h-27.5c0,0,0,0,0,0h13.6c12.9,0,45.2-12.5,45.2-42.5c0-32-36.6-43.5-50.2-43.5H472   c-0.7-0.2-1.4-0.4-2.2-0.5c14.8-2.6,45.1-15.4,45.1-42c0-32-31.6-43.5-45.2-43.5h-4.6c-2.1-0.3-4.2-0.5-6.3-0.5   c14.8-2.6,40.1-15.4,40.1-42c0-32-31.6-43.5-45.2-43.5h-67.5c-1.9,0-3.8,0.1-5.6,0.3c-9,0.1-18.9,0.2-29.4,0.2   c-35.9,0-52.8,0-146.7,0C111.6,5.5,5,70.5,5,162.5c0,60.9,36.9,118,64.2,152l-0.2,0c0.8,1,1.7,2,2.7,3.1c2.9,3.6,5.7,6.9,8.3,9.9   l0.3,0c7.6,8.8,18.7,22.3,36.7,46c36.6,48.3,72,123,79,136s21,35,54,34c33-1,52.5-27.4,41-66c-10.8-36.4-38.1-88.2-53.2-128   c78.3,0,115.9,0,150.4,0c4.2,0,12.9,0.6,16.8,0l29.7-0.5h61.2c12.9,0,42.2-13.5,42.2-43.5C538,273.5,509.3,263,495.8,263z" style="fill:#F6E049;"/>
	<g>
		<path d="M495.8,258c-4.6,0-9.2,0-13.8,0c-3.1,0-6.2,0-9.4,0c-1,0-2.1,0-3.1,0c-1,0-2.1-0.4,0,0.2    c-0.4,3.3-0.9,6.5-1.3,9.8c8.3,0,16.5,0.5,24.5-1.7c12-3.4,23.3-10.3,30.8-20.3c8.6-11.4,10.9-27.5,5.6-40.8    c-4.9-12.2-15-21.2-26.8-26.6c-5.5-2.6-11.4-4.6-17.4-5.7c-2.5-0.4-5-0.8-7.6-0.9c-0.9,0-1.8,0-2.7,0c-0.7,0-1.4,0-2.1,0    c-0.2,0-0.3,0-0.5,0c1.3,0.2-0.6-0.3-0.9-0.3c0,3.2,0,6.4,0,9.6c19.9-3.6,42.7-16.9,47.7-37.8c2.8-11.8,0.2-25.3-6.9-35.2    c-6.2-8.7-15-14.8-24.8-18.7c-4.5-1.8-9.1-2.9-13.8-3.4c-1.7-0.2-3.4-0.2-5.1-0.2c-1,0-2,0-3,0c0.3,0,1.1,0.1-0.3,0    c-0.8-0.1-1.6-0.2-2.5-0.3c-1.2-0.1-2.4-0.2-3.6-0.2c0.4,3.3,0.9,6.5,1.3,9.8c12.3-2.2,24.7-8.9,32.9-18.3    c10.5-12.1,13.7-29.1,8.2-44.2C494.1,12.7,472.7,0,451.8,0c-19.2,0-38.5,0-57.7,0c-21.1,0-42.2,0.5-63.3,0.5    c-19.9,0-39.8,0-59.7,0c-17.4,0-34.8,0-52.2,0c-17.4,0-34.4,0.4-51.6,3.3c-31.5,5.3-62.2,17-89.1,34.1    C52.4,54.2,29.4,76.1,15,103.2c-6.9,13.1-11.8,27.3-13.8,42c-2.5,18.2-0.9,36.7,3,54.6c8,36.2,26,69.9,47.5,99.9    c4.4,6.2,9.1,12.3,13.8,18.2c1.6-2.8,3.2-5.6,4.9-8.4c-0.1,0-0.1,0-0.2,0c-5-1-8.1,4.5-4.9,8.4c2.2,2.6,4.4,5.3,6.6,7.9    c1.7,2,4.1,6,6.9,6.4c-0.7-0.4-1.5-0.9-2.2-1.3c23.9,27.7,45.9,57,64.9,88.4c17,28.1,32.1,57.3,47,86.6    c4.7,9.3,9.9,18.4,17.4,25.9c12.6,12.5,30.2,17.9,47.7,16.3c15.7-1.4,30.4-8.8,38.6-22.6c9-15.1,8.1-33.8,3.2-50.1    c-5.8-19.2-13.9-37.6-22-55.9c-8.6-19.3-17.5-38.4-25.6-58c-1.9-4.5-3.7-9-5.4-13.5c-1.6,2.1-3.2,4.2-4.8,6.3    c37.8,0,75.7,0,113.5,0c12.3,0,24.6-0.1,36.9,0c4.2,0,8.4,0.3,12.6,0.3c1,0,1.9,0,2.9-0.1c0.8-0.1,3.1-0.2,1.4-0.2    c0.5,0,0.9,0,1.4,0c5.6-0.1,11.2-0.2,16.9-0.3c18.3-0.3,36.7-0.2,55-0.2c7.6,0,15.6,0.7,23.1-0.6c13.5-2.3,26.3-11.1,33.9-22.3    c9.8-14.4,10.3-34.9,1.4-49.9c-7-11.8-19.7-19.9-33-22.4C501.1,258.4,498.4,258,495.8,258c-6.4,0-6.4,10,0,10    c1.1,0,2.2,0.1,3.3,0.2c0.3,0,0.5,0.1,0.8,0.1c-0.2,0-1.1-0.2-0.1,0c0.7,0.1,1.4,0.2,2.1,0.4c2.7,0.6,5.4,1.4,7.9,2.4    c0.7,0.3,2,0.8,3.3,1.5c1.4,0.7,2.8,1.5,4.2,2.4c2.6,1.7,4.8,3.6,7.1,6.1c9.6,10.6,11.5,28.3,4.7,41.2    c-5.9,11.2-17.3,18.9-29.2,21.3c-0.5,0.1-1.1,0.2-1.6,0.3c1.3-0.2-0.2,0-0.6,0c-0.6,0-1.2,0.1-1.9,0.1c-0.9,0-1.8,0-2.6,0    c-4.4,0-8.7,0-13.1,0c-17.6,0-35.3-0.2-52.9,0.1c-5.9,0.1-11.8,0.2-17.7,0.3c-1.4,0-2.8,0-4.2,0.1c-1.3,0.1-1.9,0.2-3.6,0.3    c-2.2,0.1-4.5,0-6.7-0.1c-12.2-0.4-24.5-0.2-36.7-0.2c-34.1,0-68.2,0-102.3,0c-6,0-12,0-18,0c-3,0-6,3.2-4.8,6.3    c14.6,38.1,34,74.3,48.1,112.6c5.7,15.6,11.4,32.5,6.4,49c-4,13-14.5,21.8-27.8,24.9c-15.2,3.5-32.5,0-44.2-10.3    c-7.7-6.8-12.6-15.1-17.4-24.5c-14.2-27.8-28.3-55.5-44.3-82.4c-19.2-32.4-41.6-62.7-65.9-91.5c-1.6-1.9-3.9-5.7-6.5-6    c0.7,0.4,1.5,0.9,2.2,1.3c-3.7-4.3-7.4-8.7-11-13c-1.6,2.8-3.2,5.6-4.9,8.4c0.1,0,0.1,0,0.2,0c5.1,1,8-4.5,4.9-8.4    c-21-26.2-39.3-55.4-50.9-87C10.3,192.7,5.2,158,16,125.9c9.1-27.1,28.1-49.9,50.2-67.5c23.8-18.9,52.1-32.3,81.4-40.2    c14.6-3.9,29.6-6.5,44.7-7.4c18.3-1.1,36.7-0.4,55-0.4c23.2,0,46.3,0,69.5,0c22.8,0,45.6,0,68.4-0.5c16.8-0.3,33.7,0,50.5,0    c6,0,12-0.1,18,0c0.7,0,1.4,0,2.1,0.1c0.5,0,1,0.1,1.5,0.1c0.9,0.1,0,0-0.2,0c0.3,0.1,0.7,0.1,1,0.2c2.3,0.4,4.6,1,6.8,1.7    c5,1.6,9.5,3.8,14.2,7.2c10.1,7.3,15.8,19.6,14.7,32.7c-1.1,13.2-10.8,23.2-22,29c-4.3,2.2-9.1,3.9-14.3,4.8    c-5.7,1-4.1,9.7,1.3,9.8c2.6,0.1,5.2,0.5,7.8,0.5c1.6,0,3.2,0,4.8,0.1c0.6,0,1.2,0.1,1.8,0.2c1.3,0.1-1.1-0.2,0.2,0    c0.4,0.1,0.8,0.1,1.2,0.2c1.9,0.4,3.8,0.8,5.7,1.4c4.1,1.3,6.8,2.5,10.7,4.7c3.9,2.3,6.9,4.7,10,8.1c6.4,7.1,9.7,17.4,8.6,27.2    c-1.1,9.3-7.2,17.1-14.6,22.4c-8.1,5.8-16.9,9.6-26.6,11.3c-4.9,0.9-4.7,8.6,0,9.6c4,0.9,8.1,0.5,12.2,0.9c0.7,0.1-0.9-0.1-0.2,0    c0.2,0,0.4,0.1,0.6,0.1c0.5,0.1,1.1,0.2,1.6,0.3c1.1,0.2,2.2,0.4,3.3,0.7c2.3,0.6,4.6,1.3,6.8,2.1c4.5,1.6,9.3,4,13.7,7.1    c4.1,2.8,8.1,6.9,10.8,11.2c6.1,10.1,6.2,23.4,0,33.7c-5.5,9.1-15.4,15.4-24.9,18.6c-2.4,0.8-4.8,1.4-7.2,1.8    c-0.2,0-0.4,0.1-0.6,0.1c-0.7,0.1,1-0.1,0,0c-0.5,0-1,0.1-1.4,0.1c-0.6,0-1.2,0-1.9,0c-4.3,0-8.7,0-13,0c-5.6,0-6.8,8.4-1.3,9.8    c1.6,0.4,3.5,0.2,5.2,0.2c3.1,0,6.3,0,9.4,0c4.8,0,9.5,0,14.3,0C502.2,268,502.2,258,495.8,258z" style="fill:#383A47;"/>
	</g>
</g>
</g></g></g></svg>