<svg xmlns="http://www.w3.org/2000/svg" version="1.1" viewBox="0 0 3000 1687" width="3000" height="1687">
<defs/><!--ITEM: Illustration component 1--><g transform="translate(142.1875 1117.1875) rotate(0.0 493.75 219.53125)  scale(1.5603397195338733 1.5607725968767665)"><svg width="632.875" height="281.311" viewBox="0.0 0.0 632.875 281.311"><path d="m0 65.311 78 216h554.875l-18.875-266h-529z" fill="#a65f35"/><path d="m99 66.311-7.5 214.724-13.5.276-78-216z" fill="#bf7351"/><path d="m99 66.311 25-38 490-13-506.391-15.311-107.609 65.311z" fill="#2b2929"/><path d="m124 28.311-25 38-7.488 215h10.372z" fill="#9a552d"/><g fill="#403838"><path d="m97.267 117.074h-78.936a1 1 0 0 1 0-2h78.5l21.435-23.438a1 1 0 0 1 .738-.325h443.996a1 1 0 0 1 0 2h-443.56l-21.435 23.437a1 1 0 0 1 -.738.326z"/><path d="m95 167.893h-58.317a1 1 0 1 1 0-2h57.964l17.893-14.448a1 1 0 0 1 .628-.222h294.832a1 1 0 0 1 0 2h-294.478l-17.894 14.448a1 1 0 0 1 -.628.222z"/><path d="m626 214.311h-307a1 1 0 0 1 0-2h307a1 1 0 0 1 0 2z"/></g><ellipse cx="188.5" cy="124.311" fill="#ba6a43" rx="10.5" ry="5"/><ellipse cx="275.5" cy="130.311" fill="#9b5837" rx="5" ry="10.5" transform="matrix(.4390926 -.89844181 .89844181 .4390926 37.453 320.612)"/><ellipse cx="242" cy="188.311" fill="#9a552d" rx="7" ry="5" transform="matrix(.78007016 -.62569205 .62569205 .78007016 -64.601 192.832)"/><circle cx="560" cy="154.311" fill="#ba6a43" r="10"/><ellipse cx="383.972" cy="40.715" fill="#ba6a43" rx="14.104" ry="8.812" transform="matrix(.9210835 -.3893651 .3893651 .9210835 14.448 152.715)"/><path d="m93.586 224.492h-36.465a1 1 0 0 1 0-2h36.465a1 1 0 0 1 0 2z" fill="#403838"/><path d="m92.1 265a1 1 0 0 1 -.648-1.761l12.208-10.369a.991.991 0 0 1 .647-.239h109.693a1 1 0 0 1 0 2h-109.33l-11.927 10.127a1 1 0 0 1 -.643.242z" fill="#403838"/><ellipse cx="50" cy="132.811" fill="#ce805d" rx="3.5" ry="6" transform="matrix(.44663511 -.8947162 .8947162 .44663511 -91.16 118.23)"/><ellipse cx="295.5" cy="241.811" fill="#cc7e5e" rx="4.5" ry="6.5" transform="matrix(.37601403 -.92661397 .92661397 .37601403 -39.678 424.7)"/><ellipse cx="83.5" cy="204.311" fill="#cc7e5e" rx="5.5" ry="2"/></svg></g><!--ITEM: Illustration component 2--><g transform="translate(1010.9375 110.9375) rotate(0.0 857.8125 616.40625)  scale(1.5614448159804577 1.561981319257737)"><svg width="1098.742" height="789.262" viewBox="0.0 0.0 1098.742 789.262"><path d="m1078.281.172a19.674 19.674 0 0 1 19.919 21.876c-13.642 145.522-6.578 94.148-67.958 747.452a22.4 22.4 0 0 1 -21.778 19.762h-986.572a21.5 21.5 0 0 1 -21.778-24c.019-.2-1.79-11.09 67.712-745.337a22.21 22.21 0 0 1 9.516-15.825h.014c.556-.366 1.111-.731 1.681-1.067h.015c8.138-4.642-12.795-2.461 999.229-2.861z" fill="#fcf0e3"/><path d="m1098.662 16.643-7.121 71.8h-1030.541l6.8-68.563a22.1 22.1 0 0 1 9.542-15.78h.014c.556-.366 1.111-.731 1.681-1.067h.015a21.082 21.082 0 0 1 10.524-2.87h994.159a14.738 14.738 0 0 1 14.927 16.48z" fill="#f991aa"/><g fill="#ffaac5"><circle cx="119.653" cy="44.305" r="25.105"/><circle cx="188.563" cy="44.305" r="25.105"/><circle cx="257.474" cy="44.305" r="25.105"/></g></svg></g><!--ITEM: Illustration component 3--><g transform="translate(1953.125 1050.0) rotate(0.0 205.46875 271.09375)  scale(1.3548476965734613 1.355373873828832)"><svg width="303.309" height="400.028" viewBox="0.0 0.0 303.309 400.028"><path d="m237.062 92.114a1 1 0 0 1 -1-1c0-30.822-12.962-89.114-62.02-89.114s-62.021 58.292-62.021 89.114a1 1 0 0 1 -2 0c0-31.514 13.379-91.114 64.021-91.114s64.02 59.6 64.02 91.114a1 1 0 0 1 -1 1z" fill="#403838"/><path d="m197.062 92.114a1 1 0 0 1 -1-1c0-30.822-12.962-89.114-62.02-89.114s-62.021 58.292-62.021 89.114a1 1 0 0 1 -2 0c0-31.514 13.379-91.114 64.021-91.114s64.02 59.6 64.02 91.114a1 1 0 0 1 -1 1z" fill="#403838"/><path d="m296.19 400.028h-210.17v-313.49h216.63c3.23 8.62-6.46 313.49-6.46 313.49z" fill="#ffdc83"/><path d="m86.02 86.538v313.49l-33.5-34.72-10.02-278.77z" fill="#eac36c"/><path d="m52.52 365.308-28.49 23.95-24.03-302.72h42.5z" fill="#ffdc83"/><path d="m86.02 400.028-61.99-10.77 28.49-23.95z" fill="#d1a74b"/></svg></g><!--ITEM: Illustration component 4--><g transform="translate(156.25 498.4375) rotate(0.0 808.59375 533.59375)  scale(1.5625 1.5604734407877325)"><svg width="1035.0" height="683.887" viewBox="0.0 0.0 1035.0 683.887"><path d="m518.471 212.769 41.015-10.322 5.187 2.608a116.029 116.029 0 0 0 30.378 10.314l6.344 1.211a35.369 35.369 0 0 0 26.506-5.486l6.906-4.692 15.691.608a13.109 13.109 0 0 0 8.691-2.811 61.753 61.753 0 0 0 16.111-18.587c2.486-4.535 2.988-7.062 1.952-8.729-1.617-2.6-7.98-5.941-14.436-4 2.831-.376 20.894.185 22.918-8.763a7.777 7.777 0 0 0 .122-2.625c-1.6-9.649-35.927-12.5-45.368-13.164l-16.564-3.76a1.224 1.224 0 0 1 .093-2.405l4.941-.723c.773 1.085 7.214 9.847 16.855 9.378 3.988-.195 14.611-2.765 12.085-7.022-5.526-9.307-10.248-16.859-13.31-19.957-4.914-4.971-12.479-4.7-24.721-4.085-6.209.311-11.606.581-18.677 2.383a81.247 81.247 0 0 0 -34.7 19.2l-40.771 11.726z" fill="#d1a7db"/><path d="m545.823 148.488c14.78 11.064 18.883 21.031 19.709 28.365.953 8.471-2.591 12.324 1.024 18.573 3.915 6.769 16.529 16.867 17.015 17.158 0 0 .02.012.018.018a67.2 67.2 0 0 1 -9.674-2.829 97.19 97.19 0 0 1 -14.5-7.062l-6.453 1.377z" fill="#ae75bc"/><path d="m653.618 147.664c-1.984 0-5.371-.819-11.36-3.356a4.395 4.395 0 0 1 -2.653-3.6 4.215 4.215 0 0 1 1.809-3.952 11.429 11.429 0 0 1 5.991-2.022 5.6 5.6 0 0 1 4.583 2.068c4.158 5.11 5.475 8.134 4.272 9.8a2.911 2.911 0 0 1 -2.642 1.062zm-5.955-11.186c-.058 0-.117 0-.175 0a9.793 9.793 0 0 0 -2.649.494 9.682 9.682 0 0 0 -2.43 1.22 2.487 2.487 0 0 0 -1.063 2.334 2.611 2.611 0 0 0 1.6 2.167c10.195 4.319 11.7 3.161 11.9 2.884.16-.221.707-1.632-4.209-7.674a3.847 3.847 0 0 0 -2.974-1.425z" fill="#403838"/><path d="m633.749 183.23a25.039 25.039 0 0 0 2.2-7.324c.2-1.482.459-4.374-3.787-18.433-1.48-4.9-2.229-6.926-4.274-7.934a7.157 7.157 0 0 0 -6.043.184c-4.588 2.324-6.012 11.11-3.692 21.821-2.573.234-23.169 2.3-25.741 2.535a29.4 29.4 0 0 0 15.116 13.435c12.791 4.874 24.048-1.617 25.492-2.482q.362-.901.729-1.802z" fill="#d1a7db"/><path d="m632.149 183.066a8.022 8.022 0 0 1 -4.21-1.124c-3.585-2.184-5.009-7.149-3.386-11.8a.875.875 0 0 1 1.653.576c-1.354 3.882-.242 7.976 2.643 9.734a7.236 7.236 0 0 0 5.574.554.875.875 0 1 1 .475 1.684 10.325 10.325 0 0 1 -2.749.376z" fill="#403838"/><path d="m635.356 205.446a.892.892 0 0 1 -.374-.084.876.876 0 0 1 -.417-1.165 24.169 24.169 0 0 0 2.121-7.069c.171-1.255.528-3.866-3.758-18.061-1.421-4.705-2.119-6.563-3.823-7.4a6.315 6.315 0 0 0 -5.262.179c-4.176 2.117-5.476 10.5-3.233 20.856a.874.874 0 0 1 -.775 1.056l-7.717.7a.875.875 0 1 1 -.159-1.742l6.74-.615c-2.155-10.861-.478-19.371 4.354-21.819a8.049 8.049 0 0 1 6.825-.189c2.439 1.2 3.254 3.6 4.725 8.467 4.4 14.559 4.019 17.321 3.816 18.8a25.946 25.946 0 0 1 -2.271 7.58.876.876 0 0 1 -.792.506z" fill="#403838"/><path d="m650.155 188.261a.891.891 0 0 1 -.3-.053l-15.291-5.582a.875.875 0 0 1 .6-1.644l14.792 5.4 15.353-13.982a.875.875 0 0 1 1.179 1.293l-15.744 14.343a.876.876 0 0 1 -.589.225z" fill="#403838"/><path d="m658.4 172.609a.829.829 0 0 1 -.184-.02l-13.62-2.91a.875.875 0 1 1 .365-1.711l13.621 2.91a.875.875 0 0 1 -.182 1.731z" fill="#403838"/><path d="m623.02 143.735a21.729 21.729 0 0 1 -4.252 4.554 23.045 23.045 0 0 1 -12.708 4.847 48.079 48.079 0 0 0 18.064 3.419c6.3-.066 10.2-1.424 16.059-2.662a110.854 110.854 0 0 1 26.385-2.25l-13.08-2.483c-.2-.038-5.273 1.6-9.737 1.09-6.664-.763-9.285-3.4-9.64-3.492-3.317-.858-8.133-2.306-11.091-3.023z" fill="#ae75bc"/><path d="m671.075 191.616a.876.876 0 0 1 -.765-.45 10.079 10.079 0 0 1 -1.272-6.062c.686-5.881 6.578-8.43 6.828-8.536a.875.875 0 0 1 .68 1.613c-.052.021-5.2 2.247-5.77 7.126a8.35 8.35 0 0 0 1.062 5.008.875.875 0 0 1 -.763 1.3z" fill="#403838"/><path d="m532 513-34 92 105 6 41-98z" fill="#b595a2" fill-rule="evenodd"/><path d="m743.146 633.943a31.4 31.4 0 0 1 3.417 13.344 20.421 20.421 0 0 1 -10.451 19.042l-4.1 2.157a132.233 132.233 0 0 1 -63.227 15.392l-159.663-1.873c-10.272-.121-18.329-9.76-17.6-21.059q2.259-35.162 4.517-70.323a27.538 27.538 0 0 1 18.772-24.36l30.868-10.291c-6.252-17.955-1.444-35.658 9.014-42.248 9.613-6.057 20.7-.646 21.972 0 11.863 6.028 19.032 21.865 17.466 39.762 36.013 42.437 68.117 55.892 91.552 59.955 20.73 3.595 47.717 2.098 57.463 20.502z" fill="#e5d2d8"/><path d="m744.829 637.833.589 1.5c3.91 9.956.356 21.621-8.286 26.807l-.183.109a77.5 77.5 0 0 1 -13.746 6.475 42.308 42.308 0 0 0 -5.973-10.824c-21.445-27.85-68.83-10.225-109.862-11.8-26.558-1.022-65.09-10.651-111.767-52.712 3.82 2.565 22.089 14.245 41.342 6.737a39.332 39.332 0 0 0 11.268-6.835 54.6 54.6 0 0 0 -2.817-16.153 50.983 50.983 0 0 0 -13.137-20.689c4.379-1.387 8.476-3.086 12.855-4.473l30.142 30.753 30.426-20.451 6.846 6.815c-3.3 2.348-10.987 8.553-13.609 19.228-4.252 17.3 7.614 34.889 19.155 42.248 13.525 8.623 27.35 3.678 44.508.621 19.025-3.389 46.62-5.257 82.249 2.644z" fill="#4097ff"/><path d="m563.423 592.938c9.134.577 25.352 19.26 17.465 35.414a34.514 34.514 0 0 1 -12.7 14.253 144.807 144.807 0 0 1 -47.867-22.641 154.9 154.9 0 0 1 -24.741-22.283c-.009-.011.029-.516.033-.513a51.564 51.564 0 0 0 25.271 8.507c6.645.368 16.458-1.779 16.518-1.737 13.568 9.571 25.395 11.189 28.836 6.4 3.407-4.746-1.748-15.285-2.815-17.4z" fill="#ffe3c3"/><path d="m694.841 614.737-2.1 1.242a57.682 57.682 0 0 1 -41.775 6.9 179.891 179.891 0 0 1 -75.713-36.154 190.811 190.811 0 0 1 -29.86-30.443c-8.665-14.317-5.7-32.841 5.071-41.626 11.352-9.263 26.987-4.116 35.614 5 12.4 13.107 8.541 32.536 8.33 33.519a191.084 191.084 0 0 0 28.17 27.337 179.422 179.422 0 0 0 72.263 34.225z" fill="#3fb4e9"/><path d="m662.726 604.385a117.8 117.8 0 0 0 -43.527 10.3 120.238 120.238 0 0 0 -13.738 7.315 38.057 38.057 0 0 1 -8.235-12.9 40.826 40.826 0 0 1 -2.623-12.057 17.259 17.259 0 0 1 5.611-13.851l12.274-11.2a29.124 29.124 0 0 1 9.633 6.977c3.539 2.132 7.3 4.6 11.183 7.456 3.422 2.515 6.524 5.026 9.319 7.455q1.539.585 3.107 1.243a96.251 96.251 0 0 1 16.996 9.262z" fill="#c7d94f"/><path d="m579.075 682.826a109.492 109.492 0 0 0 -35.375-35.836 96.84 96.84 0 0 0 -50.353-14.57l-2.294 30.335c-.777 10.278 6.523 19.12 15.874 19.229z" fill="#ffadc7"/><ellipse cx="592.25" cy="575.869" fill="#403838" rx="4.488" ry="4.535" transform="matrix(.99307871 -.11745074 .11745074 .99307871 -63.533 73.54)"/><ellipse cx="626.562" cy="603.221" fill="#403838" rx="4.488" ry="4.535" transform="matrix(.99307871 -.11745074 .11745074 .99307871 -66.508 77.759)"/><path d="m626.469 602.947a1 1 0 0 1 -.822-1.569 19.063 19.063 0 0 1 17.687-8.129 1 1 0 0 1 -.208 1.989 17.061 17.061 0 0 0 -15.833 7.277 1 1 0 0 1 -.824.432z" fill="#403838"/><path d="m592.95 575.944a1 1 0 0 1 -.806-1.591 22.7 22.7 0 0 1 14.269-8.94 1 1 0 1 1 .36 1.967 20.707 20.707 0 0 0 -13.015 8.154 1 1 0 0 1 -.808.41z" fill="#403838"/><path d="m571 562a1 1 0 0 1 -.855-1.516 19.248 19.248 0 0 1 10.864-8.9c7.979-2.291 13.656.926 18.6 4.742a1 1 0 0 1 -1.222 1.584c-4.529-3.5-9.7-6.452-16.828-4.4a17.272 17.272 0 0 0 -9.7 8.012 1 1 0 0 1 -.859.478z" fill="#403838"/><path d="m576.925 557.161-3.062-2.461a11.1 11.1 0 0 0 -15.561 1.691l-5.339 6.641a7.626 7.626 0 0 0 1.163 10.692l8.458 6.8a7.628 7.628 0 0 0 10.693-1.162l5.339-6.641a11.1 11.1 0 0 0 -1.691-15.56zm-5.591 11.85a6.256 6.256 0 1 1 -4.078-7.851 6.255 6.255 0 0 1 4.078 7.851z" fill="#4097ff"/><path d="m822 626-62-69 97-34 36.145 50.799z" fill="#c9a6b4"/><path d="m355.417 399.065 204.583-1.065 106.612 132.381c1.323 3.769 14.794 40.152 53.388 51.619 28.895 8.585 60.669-.123 82.2-22.411l15.219-7.117a69.712 69.712 0 0 0 24.242-27.581c2.32-4.795 10.617-22.6 5.338-43.891-7.843-31.633-38.925-43.85-42-45l-111.685-202.522-289.314 23.522z" fill="#5dace2"/><path d="m580.804 337.324-63.558 60.899 42.558.101 18.959 22.974z" fill="#3591ba"/><path d="m754 582c.429-11.164 30.8-36.038 44.331-56.773 7.5-11.5 10.42-20.887 20.669-24.227 6.321-2.06 10.263-.135 15-3 7.962-4.814 9.137-17.693 8.662-28.8 4.438 5.552 19.113 25.3 14.338 47.8-4.047 19.068-19.869 29.754-38 42-17.746 11.986-36.1 17.886-46 21-7.686 2.417-19.013 4.639-19.018 4.428-.015-.646-.019-1.474.018-2.428z" fill="#3591ba"/><path d="m722.505 304c9.9 3.41 14.3 8.371 16.5 12 11.536 19.088-12.254 43.985-19 89a161.206 161.206 0 0 0 -.705 42c-7.937 4.132-25.785 22.065-36.916 51-3.084 8.018-8.41 21.833-5.617 39a63.784 63.784 0 0 0 8.233 23 79.292 79.292 0 0 1 -9-11c-6.135-9.131-8.663-18.365-10.473-25l-38.5-59.7z" fill="#3591ba"/><path d="m323.077 31.908 141.508 147.075a204.969 204.969 0 0 1 46.906-49.833 24.954 24.954 0 0 1 34.445 4.316c26.212 32.434 38.092 70.6 27.064 99.534-18.436 48.369-104.641 80.768-191.079 34.908z" fill="#4ca2bb"/><path d="m409 259c16.5-21.25 33.132-31.542 45-37 25-11.5 41.895-7.528 77-19a229.725 229.725 0 0 0 42.346-18.762l15.654 39.762z" fill="#477ca2"/><path d="m361 72c2.674 12.5 24.924 65.408 27.6 77.908l7.4 101.092c7.667-3 29.91-7.592 37.577-10.592a44.57 44.57 0 0 0 10.816-18.588c7.144-25.512-11.093-57.747-45.393-80.82a162.8 162.8 0 0 0 -8-23 165.58 165.58 0 0 0 -30-46z" fill="#477ca2" fill-rule="evenodd"/><path d="m192.26 312.771 37.129 52.509c18.133 25.645 43.925 45.422 75.256 47.629l86.383 2.254a366.343 366.343 0 0 0 64.931-2.7c17.441-2.289 47.387-6.438 83.041-21.463 14.492-6.107 27.783-16.964 35.8-21.676-15.688 18.03-33.108 40.645-48.8 58.676-27.059 12.9-44.68 36.93-45.283 62.514-.588 24.929 16.214 42.817 26.451 53.716 34.332 36.557 81.832 43.196 100.832 44.77 3.815-.132 42.5-2.142 65-36 20.44-30.757 11.348-63.454 10-68a650.424 650.424 0 0 0 26.077-67.092c1.79-5.5 4.354-13.619 9.091-29.965 6.363-21.955 12.287-44.043 18.832-65.943 4.838-16.192 12.449-41.4 4.044-69.888a180.431 180.431 0 0 0 -8.044-19.112c-33.307-66.221-212.07-16.008-318.7 9.045l-100.3 21.955z" fill="#5dace2" fill-rule="evenodd"/><path d="m382 255c-33.657 19.39-55.4 39.917-69 55-19.19 21.287-32.317 43.009-54 44a38.336 38.336 0 0 1 -18.573-4.157 27.294 27.294 0 0 0 -22.2-.669l-.129.052-26.098-36.226 125.673-49.8 71.38-15.625z" fill="#3591ba" fill-rule="evenodd"/><path d="m106.577 281.56c39.648-175.855 114.942-285.893 177-281.429 57.727 4.152 95.511 106.775 107 141.188 24.243 19.488 34.5 49.877 26 76.754-10.483 33.162-47.812 55.613-88 50.221a114.589 114.589 0 0 1 -47 40.746c-33.051 15.6-63.888 11.3-74 9.476z" fill="#4ca2bb"/><path d="m169 384c-8.954 49.926-31.51 61.119-41.278 65.423-32.693 14.406-61.725 2.033-66.742 0-22.79 28.406-26.045 33.654-36.224 32.777-11.421-.976-1.462-11.4 4.679-27.494-1.168.126-26.261 3.521-28.895-2.754-3.221-7.684 8.85-10.814 12.761-13.66-7-1.309-10.821.307-11-5.508-.215-6.784 28.599-19.279 82.489-35.434 3.593-1.077 8.44-14.3 12.21-15.35z" fill="#d1a7db"/><path d="m28.709 459.31a.985.985 0 0 1 -.43-.1 1 1 0 0 1 -.473-1.332c.859-1.8 1.571-3.4 2.26-4.941 2.332-5.221 4.017-8.992 8.2-13.576a44.186 44.186 0 0 1 22.127-12.989 1 1 0 1 1 .462 1.946 42.191 42.191 0 0 0 -21.119 12.4c-3.958 4.339-5.587 7.987-7.842 13.036-.662 1.483-1.412 3.161-2.281 4.986a1 1 0 0 1 -.904.57z" fill="#403838"/><path d="m15.215 438.594a1 1 0 0 1 -.568-1.823 122.46 122.46 0 0 1 40.045-18.113 1 1 0 0 1 .482 1.941 120.456 120.456 0 0 0 -39.393 17.818 1 1 0 0 1 -.566.177z" fill="#403838"/><path d="m28.98 478.5a4.364 4.364 0 0 1 -3.142-1.166 7.128 7.128 0 0 1 -1.652-5.379 8.6 8.6 0 0 1 2.594-6.25c1.708-1.422 4.223-1.526 6.728-.275 2.351 1.175 4.668 3.624 4.546 6.033-.135 2.672-3.233 5.3-6.079 6.414a8.291 8.291 0 0 1 -2.995.623zm1.091-11.949a3.059 3.059 0 0 0 -2.011.692 6.812 6.812 0 0 0 -1.875 4.791 5.38 5.38 0 0 0 1.05 3.869c1.11 1.084 3.174.44 4.01.112 2.487-.975 4.736-3.148 4.812-4.653.066-1.3-1.478-3.161-3.443-4.143a5.989 5.989 0 0 0 -2.543-.672z" fill="#403838"/><path d="m10.441 450.59a7.808 7.808 0 0 1 -2.882-.5 2.816 2.816 0 0 1 -2.037-2.606c-.022-2.438 3.638-5.971 6.527-6.3a3.692 3.692 0 0 1 3.843 2.225 5.115 5.115 0 0 1 -.661 5.622 7.038 7.038 0 0 1 -4.79 1.559zm2.069-7.432a2.128 2.128 0 0 0 -.235.014c-2.105.241-4.764 3.088-4.753 4.3 0 .3.271.558.8.773 1.614.665 4.543.331 5.5-.625a3.189 3.189 0 0 0 .269-3.338 1.707 1.707 0 0 0 -1.581-1.124z" fill="#403838"/><path d="m9.116 434.1a7.28 7.28 0 0 1 -2.548-.431 2.868 2.868 0 0 1 -2.108-2.515c-.085-2.226 3.057-5.341 5.6-5.556a3.484 3.484 0 0 1 3.474 2.16 4.678 4.678 0 0 1 -.488 5.035 5.616 5.616 0 0 1 -3.93 1.307zm1.244-6.515c-.041 0-.083 0-.127 0-1.673.142-3.813 2.5-3.775 3.486.015.374.584.633.828.727 1.39.534 3.617.327 4.331-.4a2.8 2.8 0 0 0 .113-2.786 1.559 1.559 0 0 0 -1.37-1.024z" fill="#403838"/><path d="m94 394a61.281 61.281 0 0 0 25 18c19.512 7.487 36.816 2.37 42.014.613a63.374 63.374 0 0 0 3.986-8.613 64.181 64.181 0 0 0 4-20l-74-3-8.259 14.838z" fill="#ba87c6"/><path d="m131.1 426.228 5.677 18.1q-24.526 13.757-31.646 18.1c-27.582 16.811-36.518 24-36.518 13.788 0-5.293 2.035-11.984 5.677-18.014 5.256-8.7 13.918-16.827 25.155-24.213q8.626-5.671 31.655-7.761z" fill="#d1a7db" fill-rule="evenodd"/><path d="m74.148 478.805a4.125 4.125 0 0 1 -2.789-.945 5.466 5.466 0 0 1 -1.522-4.375 6.789 6.789 0 0 1 2.353-5.138c1.673-1.254 4.1-1.236 6.5.046 1.69.906 3.625 2.676 3.512 4.682-.117 2.093-2.59 4.062-4.838 5a8.413 8.413 0 0 1 -3.216.73zm.959-9.381a2.8 2.8 0 0 0 -1.717.523 4.849 4.849 0 0 0 -1.554 3.614 3.652 3.652 0 0 0 .841 2.8c.724.635 2.223.591 3.911-.12 2.1-.882 3.566-2.4 3.615-3.272.04-.712-.869-1.956-2.46-2.807a5.8 5.8 0 0 0 -2.636-.738z" fill="#403838"/><path d="m78.24 454.576a1 1 0 0 1 -.817-1.576c6.356-9.009 11.893-15.422 16.459-19.06a42.836 42.836 0 0 1 17.481-7.907 1 1 0 1 1 .438 1.952 40.857 40.857 0 0 0 -16.673 7.515c-4.418 3.521-9.824 9.795-16.07 18.649a1 1 0 0 1 -.818.427z" fill="#403838"/><path d="m271.223 175.143a166.447 166.447 0 0 1 -19.146 67.765 165.389 165.389 0 0 1 -32 42c-5.97 19.824-4.009 44.75-12.077 67.092-1.839 5.093-3.34 9.748-4.614 14.051a58.706 58.706 0 0 1 -81.749 36.126l-.56-.269q-3.524-1.695-6.993-3.087c-1.793-.722-3.173-1.283-4.784-1.857-4.189-1.492-7.415-2.3-7.727-2.382-3.904-1.026-55.759-22.382-56.573-64.582-.473-24.515 16.425-48.391 42-61 13.345-49.679 38.05-115.259 86-181a533.742 533.742 0 0 1 49-58" fill="#4ca2bb"/><path d="m274.371 212.146a89.739 89.739 0 0 1 -36.371 77.854 36.67 36.67 0 0 1 -4 20c-5.942 11.318-16.124 9.844-19 11 1.634-13.977 3.366-22.023 5-36a95.512 95.512 0 0 0 54.371-72.854z" fill="#477ca2"/><path d="m191 287a74.111 74.111 0 0 0 29-2l-2.228 16.219a23.871 23.871 0 0 1 -9.772-.219c-10.823-2.565-16.032-12.138-17-14z" fill="#477ca2" fill-rule="evenodd"/><path d="m215 321a1.027 1.027 0 0 1 -.232-.027 1 1 0 0 1 -.742-1.2c4.279-18.021 4.807-23 5.05-34.882a1 1 0 0 1 .584-.889 92.21 92.21 0 0 0 40.487-35.52c19.043-31.069 12.551-63.792 10.108-73.081a1 1 0 0 1 1.934-.508c2.5 9.482 9.12 42.89-10.337 74.634a94.135 94.135 0 0 1 -40.79 36.031c-.275 12.4-1.08 17.787-5.09 34.678a1 1 0 0 1 -.972.764z" fill="#403838"/><path d="m198.5 288.365c-2.869 0-5.738-.123-8.589-.369a1 1 0 0 1 .172-1.992 97.86 97.86 0 0 0 29.7-1.98 1 1 0 0 1 .434 1.953 100.425 100.425 0 0 1 -13.131 2.023c-2.847.242-5.714.365-8.586.365z" fill="#403838"/><path d="m1023.844 537.336a30.572 30.572 0 0 1 8.4 10.315c3.65 6.971 3.178 15.4-.988 21.323l-2.582 3.671a125.959 125.959 0 0 1 -47.2 40.828l-136.014 67.11c-8.751 4.317-19.556-.727-23.608-11.022q-12.609-32.033-25.217-64.066a27.909 27.909 0 0 1 5.842-29.605l21.9-22.384c-12.71-13.168-15.949-30.878-9.812-41.2 5.642-9.491 17.27-9.487 18.612-9.463 12.538.216 25.151 11.118 31.216 27.6 48.031 21.976 80.782 20.035 102.31 13.532 19.043-5.754 41.283-18.698 57.141-6.639z" fill="#e5d2d8"/><path d="m1026.876 540.047 1.119 1.073c7.424 7.11 9.23 18.945 4.052 27.248l-.11.176a75.656 75.656 0 0 1 -8.969 11.64 39.975 39.975 0 0 0 -9.53-6.989c-29.668-15.366-62.527 20.611-97.936 36.888-22.917 10.536-59.533 18.625-116.442 1.572 4.294.621 24.594 3.07 37.8-11.854a38.875 38.875 0 0 0 6.722-10.89 53.652 53.652 0 0 0 -9.057-13.056 47.673 47.673 0 0 0 -19.671-12.618c3.136-3.112 5.9-6.377 9.041-9.489l38.233 14.186 17.326-31.171 8.614 3.072c-1.828 3.5-5.774 12.288-3.587 22.847 3.545 17.116 20.858 27.54 33.673 29.07 15.018 1.793 24.687-8.53 37.958-18.62 14.716-11.188 37.317-24.718 70.764-33.085z" fill="#4097ff"/><path d="m854.673 578.518c7.975-3.425 29.429 6.094 29.419 23.761a34.965 34.965 0 0 1 -4.87 18.06 130.963 130.963 0 0 1 -49.9.615 141.476 141.476 0 0 1 -30.2-9.044c-.153-.13-.262-.433-.164-.455a46.735 46.735 0 0 0 24.935-3.367c5.781-2.536 13.206-8.659 13.274-8.648 15.446 2.611 26.132-1.053 27.067-6.768.935-5.657-7.784-12.746-9.561-14.154z" fill="#4097ff"/><path d="m975 541.173-1.266 2a54.474 54.474 0 0 1 -32.535 24.087 162.762 162.762 0 0 1 -79.065.672 175.078 175.078 0 0 1 -37.871-14.032c-13.253-8.916-18.388-26.558-12.9-38.955 5.791-13.072 21.16-15.259 32.233-10.921 15.918 6.237 20.672 25.062 20.9 26.022a174.9 174.9 0 0 0 35.151 12.016 162.307 162.307 0 0 0 75.353-.889z" fill="#3fb4e9"/><path d="m943.516 545.861a112.031 112.031 0 0 0 -32.616 27.844 118.167 118.167 0 0 0 -8.617 12.377 35.585 35.585 0 0 1 -12.3-7.854 39.946 39.946 0 0 1 -7.2-9.52 17.611 17.611 0 0 1 -.967-14.653l5.77-15.181a26.443 26.443 0 0 1 11.042 2.014c3.878.359 8.082.92 12.552 1.77 3.937.748 7.6 1.63 10.973 2.572q1.545-.147 3.144-.24a86.988 86.988 0 0 1 18.219.871z" fill="#c7d94f"/><path d="m905.053 651.18a100.587 100.587 0 0 0 -44.761-16.422 88.053 88.053 0 0 0 -48.669 8.815l10.585 27.786c3.586 9.413 13.421 14.081 21.387 10.15z" fill="#ffadc7"/><g fill="#403838"><ellipse cx="872.042" cy="551.024" rx="4.24" ry="4.445" transform="matrix(.99485068 -.10135148 .10135148 .99485068 -51.354 91.215)"/><ellipse cx="890.791" cy="556.623" rx="4.24" ry="4.445" transform="matrix(.99485068 -.10135148 .10135148 .99485068 -51.825 93.144)"/><ellipse cx="912.402" cy="560.408" rx="4.24" ry="4.445" transform="matrix(.99485068 -.10135148 .10135148 .99485068 -52.097 95.353)"/><path d="m911.8 560.322a.906.906 0 0 1 -.146-.011 1 1 0 0 1 -.844-1.134 19.183 19.183 0 0 1 3.956-9.177 18.064 18.064 0 0 1 7.692-5.633 1 1 0 1 1 .71 1.869 16.08 16.08 0 0 0 -6.839 5.012 17.185 17.185 0 0 0 -3.542 8.22 1 1 0 0 1 -.987.854z"/><path d="m890.622 556.824h-.014a1 1 0 0 1 -.986-1.013 19.559 19.559 0 0 1 1.449-7.179 19.079 19.079 0 0 1 6.99-8.572 1 1 0 1 1 1.12 1.656 17.091 17.091 0 0 0 -6.259 7.674 17.526 17.526 0 0 0 -1.3 6.448 1 1 0 0 1 -1 .986z"/><path d="m872.254 550.905a.985.985 0 0 1 -.17-.015 1 1 0 0 1 -.816-1.155 22.87 22.87 0 0 1 2.635-7.4 21.979 21.979 0 0 1 5.767-6.644 1 1 0 1 1 1.218 1.586 19.977 19.977 0 0 0 -5.244 6.045 20.847 20.847 0 0 0 -2.4 6.757 1 1 0 0 1 -.99.826z"/><path d="m847.9 548.039a.838.838 0 0 1 -.086 0 1 1 0 0 1 -.911-1.081 19.268 19.268 0 0 1 5.531-12.542c5.839-5.484 12-5.087 17.789-3.839a1 1 0 1 1 -.421 1.955c-6.073-1.309-11.119-1.24-16 3.341a17.294 17.294 0 0 0 -4.907 11.255 1 1 0 0 1 -.995.911z"/></g><path d="m851.334 541.1-3.61-.856a10.458 10.458 0 0 0 -12.482 8.2l-1.78 8.166a7.51 7.51 0 0 0 5.4 8.945l9.974 2.364a7.188 7.188 0 0 0 8.578-5.632l1.779-8.166a10.927 10.927 0 0 0 -7.859-13.021zm.159 12.876a6.114 6.114 0 0 1 -4.967 6.983 5.936 5.936 0 0 1 -6.7-5.179 6.114 6.114 0 0 1 4.966-6.983 5.937 5.937 0 0 1 6.701 5.177z" fill="#4097ff"/><path d="m845.633 563.022a7.693 7.693 0 0 1 -4.594-1.532 8.236 8.236 0 0 1 3.437-14.676 7.66 7.66 0 0 1 5.777 1.44 8.124 8.124 0 0 1 3.2 5.434 8.128 8.128 0 0 1 -6.641 9.241 7.771 7.771 0 0 1 -1.179.093zm.017-12.3a3.692 3.692 0 0 0 -.563.044 4.115 4.115 0 0 0 -3.292 4.724 4.161 4.161 0 0 0 1.627 2.786 3.694 3.694 0 0 0 2.784.7 4.117 4.117 0 0 0 3.292-4.726 4.159 4.159 0 0 0 -1.627-2.784 3.725 3.725 0 0 0 -2.221-.743z" fill="#f97381"/><path d="m844.456 566.088a1 1 0 0 1 -.957-.713 16.446 16.446 0 0 1 .481-10.294 1 1 0 0 1 1.878.69 14.434 14.434 0 0 0 -.443 9.03 1 1 0 0 1 -.672 1.245 1.017 1.017 0 0 1 -.287.042z" fill="#403838"/><ellipse cx="845.328" cy="567.887" fill="#403838" rx="4.24" ry="4.445" transform="matrix(.99485068 -.10135148 .10135148 .99485068 -53.2 88.594)"/><path d="m650.453 489.876h-.453a77.4 77.4 0 0 1 -15.326-1.658.875.875 0 0 1 .359-1.713 75.621 75.621 0 0 0 14.977 1.621c13.523.042 30.832-3.555 32.762-3.969l.1-.021a.875.875 0 0 1 .3 1.723c-1.983.425-19.092 4.017-32.719 4.017z" fill="#403838"/><path d="m521.932 397.466a.875.875 0 0 1 -.255-1.712 164.6 164.6 0 0 0 44.83-21.476c2.887-1.972 5.744-4.061 8.49-6.209a.875.875 0 1 1 1.078 1.379c-2.776 2.17-5.663 4.282-8.581 6.275a166.346 166.346 0 0 1 -45.306 21.7.873.873 0 0 1 -.256.043z" fill="#403838"/><path d="m742.143 302.655a101.169 101.169 0 0 1 -40.143 17.345 93.244 93.244 0 0 1 -35 0c4.483 4.851 9.472 9.891 15 15q3.461 3.2 6.859 6.125a32.188 32.188 0 0 0 26.5 7.4l.145-.025 4.346-.75a16.483 16.483 0 0 0 13.038-11.673l.021-.072c2.265-7.846 2.171-7.853 2.9-10 1.483-4.332 2.906-9.007 4.19-14.01q1.24-4.82 2.144-9.34z" fill="#3591ba"/><path d="m78.241 273.974a170.952 170.952 0 0 1 22.759-5.974c15.9-3.021 31-2.454 31-3s-15.678 2.409-27-6c-5.689-4.225-8.76-10.194-10.527-15.461q-1.367 4.2-2.689 8.563-2.238 7.382-4.123 14.473z" fill="#477ca2"/><path d="m329 268a62.1 62.1 0 0 1 3-8c.649-1.425 1.322-2.758 2-4a71.756 71.756 0 0 0 34 2 72.975 72.975 0 0 0 39.621-21.971c-1.821 4.456-9.373 21.492-28.621 30.971-23.9 11.769-46.635 2.446-50 1z" fill="#477ca2" fill-rule="evenodd"/><path d="m773 444.875a.874.874 0 0 1 -.4-1.653 72.9 72.9 0 0 1 32.387-8.1h.013a.875.875 0 0 1 .011 1.75 71.137 71.137 0 0 0 -31.613 7.9.874.874 0 0 1 -.398.103z" fill="#403838"/><path d="m450 205a1.012 1.012 0 0 1 -.323-.053 1 1 0 0 1 -.623-1.27 70.548 70.548 0 0 1 15.216-25.359 1 1 0 0 1 1.461 1.365 68.557 68.557 0 0 0 -14.785 24.641 1 1 0 0 1 -.946.676z" fill="#403838"/></svg></g><!--ITEM: Illustration component 5--><g transform="translate(440.625 115.625) rotate(0.0 215.625 180.46875)  scale(1.56067355956616 1.5617427913738793)"><svg width="276.323" height="231.112" viewBox="0.0 0.0 276.323 231.112"><circle cx="150.707" cy="45.678" fill="#211f1f" r="45.674"/><path d="m182.439 76.964c-36.739-17.015-80.639-.322-98.058 37.285s-1.754 81.887 34.985 98.9 77.292-.764 94.709-38.37c2.672-5.768 7.913-10.608 9.071-16.568 6.394-32.894-9.604-66.842-40.707-81.247z" fill="#2b2929" fill-rule="evenodd"/><path d="m276.323 151.356c-5.744-.665-13.531-2.524-20.095-8.163-11.211-9.631-9.706-22.429-19-27-4.174-2.053-11.135-2.747-23.23 3.908-1.787-3.768-7.984-13.14-9.77-16.908 26.159-13.142 40.664-6 45-2 7.267 6.7-.386 21.434 9 36 5.085 7.89 12.76 11.989 18.095 14.163z" fill="#2b2929"/><path d="m245.565 142.594c-6.011-1.036-9.188-3.432-10.969-5.386-3.327-3.649-3.191-7.3-6.922-10.019a13.452 13.452 0 0 0 -8.4-2.26c-6.655-5.286-7.967-7.853-7.062-8.6.781-.642 22.467-9.3 24.645 12.474.3 3.005.818 7.369 8.708 13.791z" fill="#211f1f"/><g fill="#2b2929"><circle cx="79.415" cy="66.06" r="65.906"/><path d="m60.244 124.1c-31.496-1.93-57.295-24.2-60.011-51.809-2.306-23.432 12.341-48.571 32.65-56.036a40.008 40.008 0 0 1 12.831-2.406l.05 2a37.98 37.98 0 0 0 -12.191 2.283c-19.508 7.168-33.573 31.379-31.35 53.968 2.621 26.635 27.617 48.133 58.143 50z"/><path d="m183.439 76.964c-36.739-17.015-80.639-.322-98.058 37.285s-1.754 81.887 34.985 98.9 77.292-.764 94.709-38.37c2.672-5.768 7.913-10.608 9.071-16.568 6.394-32.894-9.604-66.842-40.707-81.247z" fill-rule="evenodd"/></g><path d="m201.682 105.587-30.938-14.329c-22.425-10.386-49.154-.346-59.7 22.424l-16.877 36.441a5.3 5.3 0 0 0 -.482 2.209c-7.538 23.8 4.45 52.473 30.189 68.235 29.553 18.1 66.031 12.323 81.476-12.9a46.213 46.213 0 0 0 3.68-7.437l6.312-1.046a5.033 5.033 0 0 0 1.308-.662c2.279-1.6 2.537-3.75 1.874-6.838l-3.672-11.735a40.577 40.577 0 0 0 6.067-9.42l2.273-4.908c10.546-22.769.915-49.648-21.51-60.034z" fill="#d1a7db"/><path d="m201.682 105.586-30.938-14.328c-22.425-10.386-49.154-.346-59.7 22.424l-16.877 36.44a5.3 5.3 0 0 0 -.482 2.21 57.45 57.45 0 0 0 -1.457 24.861 49.481 49.481 0 0 0 3.412 10.7 145.835 145.835 0 0 1 32.2-18.007c30.4-12.16 49.889-7.634 80-23a134.781 134.781 0 0 0 18.349-11.3 46.676 46.676 0 0 0 -14.841-23.9 43.443 43.443 0 0 0 -9.666-6.1z" fill="#ae75bc"/><path d="m216.715 109.564c3.167 3.833 6.692 9.417 5.519 15.08-2.964 14.314-32.753 21.322-52.614 22.6-27.355 1.754-35.592-7.274-49.392-1.047-9.916 4.474-20.4 15.779-26 44l-8.428-20.241a51.324 51.324 0 0 1 -1.576-20.763 53.192 53.192 0 0 1 15.066-30.131c1.408-2.131 23.449-34.694 49.934-34.869 8.322-.055 24.121 3.041 39.02 9.42 1.152.494 2.1.922 2.75 1.219z" fill="#2b2929" fill-rule="evenodd"/><path d="m131.527 140.044a19.059 19.059 0 1 0 -16.015 34.579q.471.218.946.409s24.818-9.67 24.854-9.751a19.282 19.282 0 0 0 -9.785-25.237z" fill="#ae75bc" fill-rule="evenodd"/><path d="m206.142 206.322-13.537-4.346a11.261 11.261 0 0 0 7.374 12.812 18.49 18.49 0 0 0 6.163-8.466z" fill="#fff"/><path d="m198.913 154.7a3.957 3.957 0 0 0 3.321-4.419 5.63 5.63 0 0 0 -2.006-4.083 3.913 3.913 0 0 0 -.431-.244c-4.477-2.15-14.569 3.244-14.569 3.244-2.862 1.53-6.3 3.5-10.132 5.985a1.619 1.619 0 0 0 1.129 2.955z" fill="#2b2929"/><path d="m162.912 129.017-.931 19.3a2.749 2.749 0 0 0 3.389 2.805l8.95-2.15a2.578 2.578 0 0 0 1.548-3.93l-10.968-16.572a1.087 1.087 0 0 0 -1.988.547zm3.965 7.561 4.113 6.215a2.578 2.578 0 0 1 -1.745 3.969l-1.141.182a2.749 2.749 0 0 1 -3.179-2.847l.341-7.076a.879.879 0 0 1 1.611-.443z" fill="#ffadc7" fill-rule="evenodd"/><path d="m153.5 127.568-11.667 15.4a2.749 2.749 0 0 0 1.212 4.229l8.6 3.28a2.578 2.578 0 0 0 3.5-2.369l.309-19.867a1.086 1.086 0 0 0 -1.954-.673zm-1 8.479-.116 7.452a2.578 2.578 0 0 1 -3.682 2.29l-1.044-.495a2.749 2.749 0 0 1 -1.015-4.145l4.277-5.647a.879.879 0 0 1 1.586.545z" fill="#7c7c29" fill-rule="evenodd"/><path d="m114.524 168.484a1 1 0 0 1 -.811-.414c-4.087-5.657-4.931-11.178-2.508-16.408 2.437-5.262 7.1-7.943 13.87-7.969a1 1 0 0 1 0 2c-6.006.024-9.952 2.25-12.063 6.809-2.126 4.59-1.369 9.3 2.314 14.4a1 1 0 0 1 -.81 1.586z" fill="#403838"/><path d="m190.228 174.193a13.98 13.98 0 0 1 6.891-12.046 22.645 22.645 0 0 0 -5.787-2.2c-8.783-2.043-17.056 1.254-18.477 7.365s4.546 12.72 13.329 14.763a22.381 22.381 0 0 0 6.865.525 13.92 13.92 0 0 1 -2.821-8.407z" fill="#fff" fill-rule="evenodd"/><path d="m197.119 162.147a13.955 13.955 0 0 0 -4.07 20.448c5.876-.477 10.574-3.427 11.612-7.889 1.079-4.639-2.106-9.561-7.542-12.559z" fill="#2b2929" fill-rule="evenodd"/></svg></g><!--ITEM: Illustration component 6--><g transform="translate(2129.6875 1165.625) rotate(0.0 36.71875 90.625)  scale(1.5744929462716006 1.5765119293026817)"><svg width="46.642" height="114.969" viewBox="0.0 0.0 46.642 114.969"><path d="m33.425 35c-6.2-7.063-21.189-14.515-25.219-14.342-3.571 9.024-6.806 19.904-7.55 26.268 4.1 14.477 9.118 43.149 9.375 64.541 12.505 4.7 25.089 4.412 34.784.67 5.41-22.855-2.035-61.398-11.39-77.137zm-17.988-1.944c-.966 1.044-2.9.824-4.31-.486s-1.78-3.222-.809-4.267 2.9-.823 4.31.491 1.78 3.218.809 4.262z" fill="#f75c84"/><g fill="#403838"><path d="m36.519 107.333c-.033 0-.066 0-.1 0a1 1 0 0 1 -.9-1.093c.983-9.941-.436-28.765-3.1-41.107a1 1 0 1 1 1.955-.422c2.745 12.724 4.15 31.442 3.133 41.725a1 1 0 0 1 -.988.897z"/><path d="m15.676 99.842a1 1 0 0 1 -1-.937c-.433-6.832-2.185-20.3-3.228-25.755a1 1 0 0 1 1.965-.376c1.052 5.508 2.822 19.108 3.259 26a1 1 0 0 1 -.935 1.061z"/><path d="m29.29 107.758h-.057a1 1 0 0 1 -.943-1.054c.548-9.8-.956-28.572-3.284-41a1 1 0 1 1 1.966-.368c2.392 12.773 3.879 31.38 3.315 41.479a1 1 0 0 1 -.997.943z"/><path d="m12.459 28.77a1 1 0 0 1 -1-.965c-.252-7.232-4.259-16.543-11.268-26.218a1 1 0 1 1 1.619-1.174c7.244 9.994 11.382 19.7 11.649 27.322a1 1 0 0 1 -.964 1.034z"/></g></svg></g><!--ITEM: Illustration component 7--><g transform="translate(2293.75 842.1875) rotate(0.0 240.625 373.4375)  scale(1.5597653464704737 1.5602119068061273)"><svg width="308.54" height="478.701" viewBox="0.0 0.0 308.54 478.701"><path d="m308.54 478.701-40.378-.113-16.113-.04-40.587-.113v-395.35h64.866z" fill="#f991aa"/><path d="m211.462 83.085v395.35l-89.227-.25-16.105-.04-89.219-.25-8.053-394.81z" fill="#ffaac5"/><path d="m144.719 77.844c-26.51 1.532-52.113-4.49-65.975-15.827a7.928 7.928 0 0 1 -2.9-6.822c1.379-15.856 6.2-28.869 15.645-39.746 9.204 18.311 53.23 62.395 53.23 62.395z" fill="#4097ff"/><path d="m144.719 77.844c-39.511-1.518-72.08-49.888-50.466-64.784 23.417-16.139 48.692 27.183 50.466 64.784z" fill="#3a8adb"/><path d="m142.669 1.122-.632-.168c-19.643-5.188-38.3 11.554-34.817 31.57 3.29 18.9 13.1 38.833 37.5 45.32 7.821-16.661 13.413-29.791 17.216-41.928a27.57 27.57 0 0 0 -19.267-34.794z" fill="#4097ff"/><path d="m144.72 78.844a1 1 0 0 1 -.258-.034c-26.173-6.959-35.234-28.919-38.227-46.115a28.222 28.222 0 0 1 5.249-21.985 1 1 0 0 1 1.6 1.2 26.243 26.243 0 0 0 -4.878 20.443c2.892 16.621 11.62 37.838 36.77 44.526a1 1 0 0 1 -.256 1.966z" fill="#403838"/><path d="m144.715 77.848s-5.743-34.316 17.035-58.284a26.279 26.279 0 0 1 34.985-2.812 66.2 66.2 0 0 1 17.884 20.4 9.028 9.028 0 0 1 -.379 9.069c-6.653 10.53-27.203 35.764-69.525 31.627z" fill="#4097ff"/><path d="m161.753 19.565c-22.78 23.97-17.043 58.28-17.043 58.28h.009c45.335-24.519 54.23-62.425 40.583-66.091h-.009c-.728-.125-1.453-.222-2.174-.276a.052.052 0 0 0 -.036 0 .033.033 0 0 0 -.028-.006 26.3 26.3 0 0 0 -21.302 8.093z" fill="#3a8adb"/><path d="m144.709 78.845a1 1 0 0 1 -.985-.835c-.047-.28-4.5-28.264 11.028-51.313a1 1 0 1 1 1.658 1.118c-15.088 22.4-10.759 49.593-10.713 49.865a1 1 0 0 1 -.822 1.151 1.043 1.043 0 0 1 -.166.014z" fill="#403838"/><path d="m290.622 149.449-79.16 8.455-209.046-8.455-2.416-75.222h284.502z" fill="#ffaac5"/><path d="m290.622 149.449-79.16 8.455v-83.677h73.04z" fill="#f991aa"/><path d="m106.13 74.227h16.106v75.222h-16.106z" fill="#4097ff"/><path d="m256.252 149.449h-16.106l-2.722-75.222h16.106z" fill="#3a8adb"/><path d="m211.462 163.48-200.886 3.832-.364-17.863 201.25 8.455z" fill="#f991aa"/><path d="m281.732 149.449.688 8.455-70.958 5.576v-5.576z" fill="#f75c84"/><path d="m211.462 158.9h-.041l-201.243-8.136a1 1 0 1 1 .081-2l201.17 8.136 70.271-7.5a1 1 0 1 1 .212 1.989l-70.344 7.511a.942.942 0 0 1 -.106 0z" fill="#403838"/><path d="m268.162 478.588-16.113-.04-14.303-395.463h16.106z" fill="#3a8adb"/><path d="m122.235 83.085v395.1l-16.105-.04v-395.06z" fill="#4097ff"/></svg></g><!--ITEM: Illustration component 8--><g transform="translate(1118.75 534.375) rotate(38.75553703415261 121.875 75.0)  scale(0.9566551802632715 0.9507390411479858)"><svg width="254.794" height="157.772" viewBox="0.0 0.0 254.794 157.772"><rect fill="#f8a036" height="157.772" rx="16.716" width="254.79"/><path d="m254.794 124v17.06a16.717 16.717 0 0 1 -16.72 16.71h-25.66l-108.74-86.44-45.11-35.86-44.39-35.28a17.762 17.762 0 0 1 2.54-.19h82.086l44.62 35.47 45.11 35.86z" fill="#ffb94d"/><path d="m.004 35.47h254.79v35.86h-254.79z" fill="#403838"/><path d="m188.534 71.33h-84.86l-45.11-35.86h84.86z" fill="#494242"/><circle cx="68.93" cy="119.51" fill="#ffdc83" r="20.254"/><path d="m52.934 136.51a20.25 20.25 0 1 1 0-34 20.235 20.235 0 0 0 0 34z" fill="#ffb20d"/></svg></g><!--ITEM: Illustration component 9--><g transform="translate(1390.625 321.875) rotate(0.0 465.625 286.71875)  scale(1.5520833333333333 1.5520584947586942)"><svg width="600.0" height="369.469" viewBox="0.0 0.0 600.0 369.469"><path d="m599.923 225.251c-.527 5.355-1.372 14.18-1.765 18.3-.391 4.1-1.629 11.525-9.519 11.525h-28.165c-.408 4.255-.845 8.825-1.3 13.577h19.249c10.757 0 12.506 6.337 12.024 11.481-.5 5.145-1.313 13.638-1.69 17.591s-1.566 11.075-9.157 11.075h-24.286c-.573 5.974-1.116 11.571-1.583 16.489h29.809c11.209 0 13.035 6.608 12.522 11.949s-1.373 14.18-1.75 18.3c-.408 4.1-1.644 11.51-9.535 11.51-83.284-.123-79.7.308-82.973-.347-6.894-1.418-9.383-6.849-8.855-12.159 12.6-130.4 11.934-126.659 12.733-129.558 3.979-14.455 18.055-11.1 19.642-11.556 1.529-.231-1.479-.074 62.078-.121 11.198-.007 13.035 6.603 12.521 11.944z" fill="#f75c84"/><path d="m518.158 224.979h-.135a12.552 12.552 0 0 0 -5.6-9.45c-2.827 1.632-5.381 4.492-6.738 9.45-.768 2.8-12.811 130.6-12.787 131.368a10.33 10.33 0 0 0 6.228 9.511l.013-.007c3.948 1.723 5.61 1.079 33.128 1.192-.441-46.57-6.385-113.552-14.109-142.064z" fill="#cc125e"/><path d="m518.067 228.69c-1.01 10.439-10.032 104.395-11.028 114.774s-1.569 23.579-13.139 23.579h-45.364c-8.559 0-10.749-12.271-21.271-50.628-1.3 13.472-2.309 23.956-2.61 27.049-1 10.379-1.569 23.579-13.14 23.579h-33.28c-9.745 0-13.2-6.321-12.611-12.506 2.807-29.382 11.838-122.921 12.144-126.36.754-7.815 6.29-14.754 15.055-14.754h36.026c5.913 0 11.118 6.939 13.26 14.754 1.373 4.963 8.4 30.534 13.366 48.562 1.736-18.028 4.195-43.6 4.677-48.562.74-7.815 6.276-14.754 15.041-14.754h30.277c6.065-0 13.608 4.827 12.597 15.267z" fill="#f75c84"/><path d="m391.926 228.69c-.034-.165 1.455-9.035-6.189-13.5-4.607 2.554-7.435 7.564-7.967 12.993-.032.348-.153 1.632-.347 3.668-.752 7.822-2.617 27.2-4.678 48.6-7.693 79.845-7.773 75.891-6.5 79.471a9.928 9.928 0 0 0 4.474 5.365 11.585 11.585 0 0 0 1.589.75c.058.023.1.055.163.077.008 0 .014-.009.023-.013 4.28 1.578 7.261.672 25.959.939 1.433-51.729-6.517-138.353-6.517-138.353z" fill="#cc125e"/><path d="m391.934 228.69c-1.012 10.439-10.048 104.395-11.028 114.774-1.011 10.379-1.585 23.579-13.156 23.579h-33.279c-9.746 0-13.2-6.321-12.612-12.506 1.765-18.472 10.3-106.888 12.145-126.36.754-7.815 6.29-14.754 15.055-14.754h30.262c6.079-0 13.608 4.827 12.613 15.267z" fill="#f75c84"/><path d="m336.994 332.391c-2.148-7.894-11.869-6.978-12.329-7.113-3.013 31.269-2.918 29.891-2.841 31.309a12.3 12.3 0 0 0 .7 3.469 10.32 10.32 0 0 0 3.283 4.467 13.91 13.91 0 0 0 8.666 2.52h15.193c-4.813-15.945-12.658-34.652-12.658-34.652z" fill="#cc125e"/><path d="m337.338 337.234c-.514 5.355-1.359 14.18-1.751 18.3-.392 4.1-1.629 11.51-9.519 11.51h-79.217c-9.075 0-13.293-5.613-12.626-12.506.226-2.187 1.72-17.771 3.59-37.322 8.467-87.3 8.349-89.3 9.157-92.236 1.75-6.412 6.909-11.556 14.452-11.556h30.293c6.065 0 13.592 4.827 12.582 15.267-.769 8.055-6.336 65.85-9.278 96.6h29.81c11.194-.006 13.019 6.602 12.507 11.943z" fill="#f75c84"/><path d="m254.188 224.979a12.94 12.94 0 0 0 -3.12-7.284 16.607 16.607 0 0 0 -4.088 7.284h-.008c-.627 2.278-.256-.748-9.289 93.615-3.779 39.4-4.83 40.134-.968 44.576 5.363 6.1 14.6 3.074 29.025 3.873 1.493-65.143-11.54-142.064-11.54-142.064z" fill="#cc125e"/><path d="m254.214 228.69c-1.012 10.439-10.048 104.395-11.044 114.774s-1.568 23.579-13.14 23.579h-45.348c-8.592 0-10.733-12.317-21.286-50.628-1.3 13.472-2.308 23.956-2.595 27.049-1.011 10.379-1.569 23.579-13.14 23.579h-33.295c-9.73 0-13.2-6.321-12.611-12.506 1.873-19.6-5.541 57.711 12.159-126.36.739-7.815 6.275-14.754 15.04-14.754h36.026c5.929 0 11.118 6.939 13.276 14.754 1.357 4.963 8.4 30.534 13.366 48.562 1.734-18.028 4.194-43.6 4.662-48.562.754-7.815 6.275-14.754 15.055-14.754h30.261c6.081-0 13.609 4.827 12.614 15.267z" fill="#f75c84"/><path d="m114.475 225.1c-.684 2.5-12.559 128.3-12.637 128.463a1.1 1.1 0 0 1 -.011.171.34.34 0 0 0 -.006.039c0 .026-.024.3-.032.323a.322.322 0 0 1 -.016.13v.048a.246.246 0 0 1 -.016.114v.063a.24.24 0 0 1 0 .027c-.007.079-.008.086 0 .008a.062.062 0 0 0 0 .033c-.011.146-.065.884-.065 1.113-.242 14.26 16.786 10.967 18.267 11.418 12.784-30.764 13.672-64.4 9.82-88.036.784-21.599-.579-39.459-15.304-53.914zm-12.41 126.189c0-.054.01-.107.015-.158a.748.748 0 0 0 -.015.155zm-.013.153c.005-.048.009-.091.014-.138-.005.032-.01.096-.014.135zm0 .028v.015c-.095.92-.082.815-.004-.018zm-.13 1.354-.01.106c-.001-.038.003-.072.006-.109zm-.08.83s0 0 0 .018zm-.017.171v.013.017z" fill="#cc125e"/><path d="m329.635 367.169a.75.75 0 0 1 -.276-1.448c4.924-1.947 5.388-7.366 6.508-20.457.208-2.433.439-5.125.724-8.1.222-2.311.039-5.557-2.094-7.9-1.943-2.138-5.195-3.222-9.666-3.222a.75.75 0 0 1 0-1.5c4.912 0 8.537 1.249 10.776 3.714 1.98 2.179 2.837 5.311 2.477 9.056-.285 2.972-.515 5.658-.722 8.087-1.176 13.746-1.663 19.436-7.452 21.724a.738.738 0 0 1 -.275.046z" fill="#494242"/><path d="m129 255.087a50 50 0 0 0 -49.8-44.45h-11.489a62.61 62.61 0 0 0 -59.86 44.174c-6.72 21.964-9.479 47.172-6.891 70.271a50.052 50.052 0 0 0 49.788 44.387h11.626a62.493 62.493 0 0 0 59.909-44.337 180.654 180.654 0 0 0 6.778-35.079 173.073 173.073 0 0 0 -.061-34.966zm-54.323 21.385c-.088 4.047-.339 8.758-.84 14.12s-1.14 10.085-1.8 14.107c-3.38 20.519-10.747 17.124-10.991 17.301-9.556-.577-4.719-37.194-3.132-46.655 3.434-20.509 10.682-17.035 10.962-17.239 3.533.213 6.051 8.119 5.801 18.366z" fill="#f75c84"/><g fill="#494242"><path d="m372.467 366.863a.75.75 0 0 1 -.309-1.434c6.537-2.95 6.893-6.8 12.837-71.112 1.595-17.257 3.58-38.734 6.192-65.7.737-7.732-3.332-11.326-5.823-12.779a.75.75 0 0 1 .756-1.3c4.765 2.781 7.156 7.964 6.56 14.218-2.612 26.963-4.6 48.439-6.192 65.694-6.14 66.438-6.38 69.031-13.712 72.342a.754.754 0 0 1 -.309.071z"/><path d="m499.13 366.611a.75.75 0 0 1 -.351-1.413c6.09-3.217 6.443-7.029 12.331-70.7 1.6-17.282 3.588-38.791 6.211-65.881.711-7.349-3-10.952-5.278-12.447a.75.75 0 0 1 .823-1.254c2.559 1.68 6.735 5.713 5.948 13.845-2.623 27.087-4.612 48.594-6.21 65.875-6.079 65.725-6.316 68.291-13.124 71.887a.746.746 0 0 1 -.35.088z"/><path d="m237.621 364.818a.743.743 0 0 1 -.545-1.25c4.012-4.128 4.012-4.128 9.844-66.174 1.672-17.8 3.754-39.944 6.547-68.776.4-4.195-.622-7.8-2.955-10.436a.75.75 0 1 1 1.122-.995c2.617 2.951 3.767 6.954 3.326 11.574-2.793 28.832-4.874 50.978-6.547 68.774-5.881 62.571-5.881 62.571-10.231 67.047a.786.786 0 0 1 -.561.236z"/><path d="m102.174 356a.75.75 0 0 1 -.475-1.33 61.154 61.154 0 0 0 19.866-29.758 183.046 183.046 0 0 0 6.688-69.749 49.033 49.033 0 0 0 -14-29.247.75.75 0 0 1 1.062-1.059 50.543 50.543 0 0 1 14.431 30.145 184.606 184.606 0 0 1 -6.746 70.346 62.647 62.647 0 0 1 -20.352 30.486.751.751 0 0 1 -.474.166z"/></g><path d="m450.358 7.909c-12.3 0-22.319 6.772-23.579 18.408-.2 2.142 1.449-15.017-15.175 157.73-.856 8.792 4.654 15.6 15.724 15.6h41.55c14.448 0 15.159-16.468 16.42-29.429.177-1.891 2.1-22.076 3.442-35.829h35.683c24.937 0 43.425-20.492 46.253-51.925 8.403-93.721-31.013-71.464-120.318-74.555zm58.955 82.6c-2.069 6.094-16.4 8.453-16.4 1.875 4.493-45.347 4.218-42.373 4.3-42.745 1.293-4.994 15.434-3.232 16.064 3.458.933 9.242-.215 26.292-3.964 37.41z" fill="#f75c84"/><path d="m445.4 87.388c.843-25.814-.4-47.587-17.39-66.21-1.4 3.6-.707-.231-7.8 73.4l-.009.024c-7.2 74.776-8.657 89.784-8.657 90.5-.329 8.274 5.156 14.546 15.781 14.546h22.916c2.732-43.138-1.699-87.897-4.841-112.26z" fill="#cc125e"/><path d="m444.37 57.4a64.492 64.492 0 0 0 -64.24-57.339c-6.837 1.024-41.206-5.91-70.817 22.528a80.228 80.228 0 0 0 -21.22 34.455c-8.669 28.333-12.227 60.849-8.888 90.647a64.505 64.505 0 0 0 43.586 53.9c14.63 4.911 25.142 2.936 35.635 3.36a80.615 80.615 0 0 0 77.282-57.193c8.613-28.598 11.78-61.438 8.662-90.358zm-70.07 27.586c-.272 12.6-2.886 59.6-15.514 58.858l-2.069-.129c-4.558-.275-7.79-10.456-7.5-23.66.311-12.618 2.894-59.64 15.547-58.89l2.053.13c4.554.274 7.802 10.472 7.483 23.691z" fill="#f75c84"/><path d="m313.926 23.088a18.035 18.035 0 0 0 -.737-3.994 80.317 80.317 0 0 0 -25.1 37.945c-8.789 28.725-16.9 84.5-1.939 113.316a64.675 64.675 0 0 0 4.65 7.545 67.377 67.377 0 0 0 7.149 8.375c0-.012 0-.025.008-.037a64.784 64.784 0 0 0 24.833 15.345c1.035-72.53-8.225-177.156-8.516-178.465-.018.004-.158-.01-.348-.03z" fill="#cc125e"/><path d="m313.887 27.033c-1.261 13.042-12.541 130.305-13.769 143.266-1.245 12.962-1.956 29.446-16.4 29.446h-41.55c-12.152 0-16.484-7.9-15.724-15.612.194-2.182 5.656-58.906 6.174-64.272l-32.6 5.35c-2.116 22.091-3.878 40.4-4.33 45.088-1.245 12.962-1.94 29.446-16.388 29.446h-41.551c-12.153 0-16.484-7.9-15.741-15.612 15.978-170.927 14.662-162.914 19.8-169.447a17.738 17.738 0 0 1 14.138-6.686h37.8c7.564 0 16.969 6.011 15.709 19.037-.469 4.865-2.311 24.241-4.526 47.271l32.581-5.35c1.794-18.762 3.636-37.9 4.073-42.535.954-9.765 7.854-18.423 18.779-18.423h37.8c7.58 0 16.985 6.007 15.725 19.033z" fill="#f75c84"/><path d="m143.389 113.551a66.785 66.785 0 0 0 -13.108-17.531c-8.288 87.754-9.658 89.955-7.208 95.624l.015-.009c4.983 11.639 20.6 7.05 28.6 8.1 7.782-21.344 10.487-60.123-8.299-86.184z" fill="#cc125e"/><path d="m155.251 52.486c.319-12.652 1.618-20.7-4.911-29.964a25.617 25.617 0 0 0 -7.211-9.327 23.2 23.2 0 0 0 -4.743 7.508 12.6 12.6 0 0 0 -.439 1.655c-1.019 4.248-3.859 34.069-4.595 41.631-.507 5.223-.682 7.015-.925 9.653a58.053 58.053 0 0 0 7.273-1.052c8.7-1.713 15.292-9.874 15.551-20.104z" fill="#cc125e"/><path d="m137.356 179.255c-21.8 28.647-78.614 24.7-107.965 9.9-5.941-3-10.285-10.845-9.649-17.49 1.109-11.585 2.308-23.758 3.37-34.616.959-9.809 9.166-14.729 18.214-10.91 19.288 8.14 31.882 4.855 34.36-2.082 4.157-11.636-17.3-25.662-28.083-39.977-10.403-13.806-16.903-30.75-9.212-48.642 12.249-28.518 59.486-32.394 93.086-27.403a25 25 0 0 1 20.957 26.465c-.326 3.774-.66 7.682-1.014 11.752a19.184 19.184 0 0 1 -22.02 17.52c-20.173-3.03-30.33 3.715-16.022 16.608 7.534 6.79 16.359 14.256 22.942 22.3 19.836 24.227 15.412 57.62 1.036 76.575z" fill="#f75c84"/><path d="m123.087 192.425a.751.751 0 0 1 -.37-1.4c13.379-7.549 23.2-22.988 25.619-40.291 2.762-19.719-3.85-38.821-18.618-53.788a.75.75 0 1 1 1.068-1.053c15.1 15.306 21.864 34.857 19.035 55.049-2.487 17.756-12.59 33.616-26.366 41.39a.759.759 0 0 1 -.368.093z" fill="#494242"/><path d="m411.531 185.874a.75.75 0 0 1 -.493-1.316 79.236 79.236 0 0 0 23.952-37.019c8.585-28.5 11.732-61.327 8.634-90.059a62.8 62.8 0 0 0 -16.168-35.809.75.75 0 0 1 1.108-1.011 64.282 64.282 0 0 1 16.551 36.659c3.119 28.924-.048 61.966-8.689 90.653a80.724 80.724 0 0 1 -24.4 37.718.748.748 0 0 1 -.495.184z" fill="#494242"/><path d="m297.958 187.047a.75.75 0 0 1 -.729-.93 95.362 95.362 0 0 0 1.945-13.788l.2-2.107c4.582-48.372 7.768-80.983 9.875-102.563 4.346-44.491 4.378-44.936 3.467-47.641-.073-.217-.151-.45-.234-.719a.75.75 0 1 1 1.434-.44c.078.254.153.475.222.68 1.022 3.035 1.022 3.035-3.4 48.266-2.107 21.579-5.292 54.189-9.875 102.56l-.2 2.1a96.422 96.422 0 0 1 -1.982 14.01.75.75 0 0 1 -.723.572z" fill="#494242"/><path d="m133.358 64.72a.75.75 0 0 1 -.039-1.5 18.39 18.39 0 0 0 17.353-17.03c.1-1.2.232-2.408.36-3.633 1.049-9.977 2.133-20.294-8.363-28.774a.75.75 0 1 1 .943-1.167c11.13 8.993 9.952 20.206 8.912 30.1-.128 1.215-.254 2.419-.357 3.606a19.879 19.879 0 0 1 -18.768 18.4z" fill="#494242"/></svg></g></svg>