<svg xmlns="http://www.w3.org/2000/svg" width="200.284" height="32.12">
    <defs>
        <style>
            .cls-1{fill:#f219af}
        </style>
    </defs>
    <g id="logo" transform="translate(13482.6 1997.186)">
        <path id="Path_73" data-name="Path 73" class="cls-1" d="M7.308-28.921a11.5 11.5 0 0 0-4.244 4.244 11.538 11.538 0 0 0-1.57 5.88 11.458 11.458 0 0 0 1.57 5.858 11.5 11.5 0 0 0 4.244 4.245 11.538 11.538 0 0 0 5.88 1.57 11.538 11.538 0 0 0 5.88-1.57 11.5 11.5 0 0 0 4.244-4.244 11.439 11.439 0 0 0 1.549-5.862 11.519 11.519 0 0 0-1.547-5.88 11.5 11.5 0 0 0-4.244-4.244 11.519 11.519 0 0 0-5.88-1.547 11.519 11.519 0 0 0-5.882 1.55zm11.075 4.863a7.4 7.4 0 0 1 2.034 5.258 7.311 7.311 0 0 1-2.056 5.239 6.776 6.776 0 0 1-5.129 2.144 6.906 6.906 0 0 1-5.172-2.14A7.189 7.189 0 0 1 5.938-18.8a7.258 7.258 0 0 1 2.1-5.239 6.955 6.955 0 0 1 5.2-2.144 6.886 6.886 0 0 1 5.145 2.125z" transform="translate(-13479.688 -1966.717)"/>
        <path id="Path_70" data-name="Path 70" d="M-4.57 7.742h4.5V-4.241A8.96 8.96 0 0 0 7.1-.985a11.539 11.539 0 0 0 5.87-1.573 11.521 11.521 0 0 0 4.255-4.252 11.481 11.481 0 0 0 1.575-5.87 11.561 11.561 0 0 0-1.573-5.892 11.521 11.521 0 0 0-4.253-4.253 11.519 11.519 0 0 0-5.87-1.55A11.679 11.679 0 0 0-4.57-12.68zM7.1-5.282A6.905 6.905 0 0 1 1.942-7.43a7.273 7.273 0 0 1-2.1-5.25 7.273 7.273 0 0 1 2.1-5.25A6.871 6.871 0 0 1 7.1-20.078a6.983 6.983 0 0 1 5.183 2.126 7.341 7.341 0 0 1 2.06 5.272 7.253 7.253 0 0 1-2.082 5.25A6.871 6.871 0 0 1 7.1-5.282zm31.342 4.3a8.719 8.719 0 0 0 4.364-1.13 6.553 6.553 0 0 0 2.835-2.813v3.588H50.1V-12.68a11.541 11.541 0 0 0-1.551-5.892 11.521 11.521 0 0 0-4.253-4.253 11.439 11.439 0 0 0-5.848-1.55 11.519 11.519 0 0 0-5.87 1.55 11.58 11.58 0 0 0-4.278 4.253 11.561 11.561 0 0 0-1.573 5.892A11.717 11.717 0 0 0 38.445-.985zM33.306-7.43a7.2 7.2 0 0 1-2.126-5.25 7.273 7.273 0 0 1 2.1-5.25 6.968 6.968 0 0 1 5.205-2.149 6.9 6.9 0 0 1 5.161 2.126 7.415 7.415 0 0 1 2.038 5.272 7.325 7.325 0 0 1-2.06 5.25 6.789 6.789 0 0 1-5.139 2.149 6.919 6.919 0 0 1-5.179-2.148zM70.142-19.7v-4.319H53v4.319h11.471S53.283-6.809 52.641-5.738a2.888 2.888 0 0 0-.286 1.474c-.01 1.513 0 2.926 0 2.926H70.54v-4.32H57.981zM82.944-.985a8.719 8.719 0 0 0 4.364-1.13 6.553 6.553 0 0 0 2.835-2.813v3.588H94.6v-11.34a11.542 11.542 0 0 0-1.551-5.892 11.521 11.521 0 0 0-4.253-4.253 11.44 11.44 0 0 0-5.848-1.55 11.519 11.519 0 0 0-5.87 1.55 11.58 11.58 0 0 0-4.278 4.253 11.561 11.561 0 0 0-1.573 5.892A11.717 11.717 0 0 0 82.944-.985zM77.806-7.43a7.2 7.2 0 0 1-2.126-5.25 7.272 7.272 0 0 1 2.1-5.25 6.968 6.968 0 0 1 5.205-2.149 6.9 6.9 0 0 1 5.161 2.126 7.415 7.415 0 0 1 2.038 5.272 7.325 7.325 0 0 1-2.06 5.25 6.789 6.789 0 0 1-5.139 2.149 6.919 6.919 0 0 1-5.179-2.148zm24.387 6.091v-11.85c0-4.452 1.838-6.623 5.094-6.623h.443v-4.3h-.443a9.109 9.109 0 0 0-6.933 2.747c-1.75 1.838-2.614 4.563-2.614 8.173v11.85zm18.385.354a8.719 8.719 0 0 0 4.364-1.13 6.553 6.553 0 0 0 2.835-2.813v3.588h4.452v-11.34a11.542 11.542 0 0 0-1.55-5.892 11.521 11.521 0 0 0-4.253-4.253 11.44 11.44 0 0 0-5.848-1.55 11.52 11.52 0 0 0-5.87 1.55 11.58 11.58 0 0 0-4.275 4.253 11.561 11.561 0 0 0-1.573 5.892A11.717 11.717 0 0 0 120.577-.985zm-5.14-6.445a7.2 7.2 0 0 1-2.126-5.25 7.272 7.272 0 0 1 2.1-5.25 6.968 6.968 0 0 1 5.205-2.149 6.9 6.9 0 0 1 5.161 2.126 7.416 7.416 0 0 1 2.038 5.272 7.325 7.325 0 0 1-2.06 5.25 6.789 6.789 0 0 1-5.139 2.149 6.919 6.919 0 0 1-5.179-2.148zm44.588-16.945a8.2 8.2 0 0 0-7.62 4.209 8.2 8.2 0 0 0-7.62-4.209 9.492 9.492 0 0 0-7.154 2.791c-1.794 1.883-2.7 4.652-2.7 8.306v11.939h4.452v-11.939c0-4.541 1.927-6.8 5.4-6.8 3.61 0 5.4 2.259 5.4 6.8v11.939h4.43v-11.939c0-4.541 1.927-6.8 5.4-6.8 3.61 0 5.4 2.259 5.4 6.8v11.939h4.43v-11.939c0-3.655-.886-6.424-2.68-8.306a9.492 9.492 0 0 0-7.137-2.791zm24.033 23.39a8.719 8.719 0 0 0 4.364-1.13 6.553 6.553 0 0 0 2.835-2.813v3.588h4.452v-11.34a11.541 11.541 0 0 0-1.551-5.892 11.521 11.521 0 0 0-4.253-4.253 11.44 11.44 0 0 0-5.848-1.55 11.519 11.519 0 0 0-5.87 1.55 11.58 11.58 0 0 0-4.275 4.253 11.561 11.561 0 0 0-1.573 5.892A11.717 11.717 0 0 0 184.059-.985zm-5.138-6.445a7.2 7.2 0 0 1-2.126-5.25 7.272 7.272 0 0 1 2.1-5.25 6.968 6.968 0 0 1 5.205-2.149 6.9 6.9 0 0 1 5.161 2.126 7.415 7.415 0 0 1 2.039 5.273 7.325 7.325 0 0 1-2.06 5.25 6.789 6.789 0 0 1-5.14 2.148 6.919 6.919 0 0 1-5.179-2.148z" transform="translate(-13478.026 -1972.808)" style="fill:#0136f4"/>
        <path id="Subtraction_1" data-name="Subtraction 1" class="cls-1" d="M4.444 11.475H0A11.6 11.6 0 0 1 11.693 0a11.572 11.572 0 0 1 11.67 11.472h-4.329a7.511 7.511 0 0 0-2.146-5.062 6.907 6.907 0 0 0-5.151-2.122 6.969 6.969 0 0 0-5.195 2.145 7.263 7.263 0 0 0-2.1 5.041z" transform="translate(-13478.191 -1997.186)"/>
    </g>
</svg>
